<?xml version="1.0" encoding="UTF-8"?>
<svg width="615" height="401" viewBox="0 0 615 401" fill="none" xmlns="http://www.w3.org/2000/svg">
<g clip-path="url(#clip0_47_1004)">
<path d="M521.994 266.218H358.774C347.656 266.218 336.993 271.455 329.131 280.777C321.269 290.099 316.853 302.742 316.853 315.926V398.768H330.004V353.056C330.004 339.873 334.421 327.229 342.283 317.907C350.145 308.585 360.808 303.348 371.926 303.348H508.842C519.961 303.348 530.624 308.585 538.486 317.907C546.347 327.229 550.764 339.873 550.764 353.056V398.768H563.916V315.926C563.916 302.742 559.499 290.099 551.637 280.777C543.775 271.455 533.112 266.218 521.994 266.218Z" fill="#F2F2F2"/>
<path d="M476.082 279.585C499.688 279.585 518.825 276.343 518.825 272.344C518.825 268.346 499.688 265.104 476.082 265.104C452.476 265.104 433.339 268.346 433.339 272.344C433.339 276.343 452.476 279.585 476.082 279.585Z" fill="#E6E6E6"/>
<path d="M508.394 274.16H451.462C437.408 258.189 427.359 242.798 435.404 230.022C435.404 226.349 436.635 222.827 438.825 220.23C441.015 217.634 443.985 216.175 447.082 216.175H512.773C515.87 216.175 518.841 217.634 521.031 220.23C523.221 222.827 524.452 226.349 524.452 230.022C527.515 244.579 522.042 259.294 508.394 274.16Z" fill="#F2F2F2"/>
<path d="M498.169 198.742C497.629 198.772 497.094 198.604 496.638 198.261C496.181 197.918 495.824 197.416 495.615 196.825C495.407 196.233 495.356 195.58 495.471 194.954C495.586 194.327 495.861 193.758 496.258 193.322L496.439 192.471C496.415 192.402 496.391 192.334 496.367 192.266C495.823 190.742 494.911 189.443 493.746 188.531C492.581 187.619 491.215 187.136 489.819 187.142C488.423 187.149 487.06 187.644 485.901 188.566C484.741 189.487 483.838 190.795 483.303 192.324C481.166 198.425 478.446 204.538 477.776 210.989C477.481 213.841 477.605 216.732 478.144 219.534C473.125 206.553 470.519 192.445 470.503 178.166C470.502 174.583 470.669 171.002 471.005 167.441C471.283 164.522 471.669 161.624 472.161 158.746C474.851 143.132 480.626 128.497 489.013 116.043C493.071 113.417 496.354 109.379 498.418 104.473C499.165 102.71 499.694 100.827 499.987 98.8838C499.529 98.955 498.26 90.6867 498.605 90.1795C497.967 89.0314 496.825 88.4607 496.128 87.3404C492.663 81.7687 487.887 82.7416 485.395 90.313C480.069 93.4998 480.018 98.7848 483.285 103.868C485.364 107.102 485.65 111.477 487.474 114.94C487.286 115.224 487.091 115.5 486.903 115.785C483.473 121.015 480.483 126.631 477.977 132.553C478.586 125.919 477.859 119.208 475.854 112.973C473.823 107.161 470.015 102.267 466.661 97.2432C462.633 91.2087 454.374 93.8423 453.664 101.492C453.657 101.566 453.65 101.64 453.644 101.714C454.142 102.047 454.63 102.401 455.107 102.775C455.706 103.25 456.17 103.928 456.439 104.721C456.708 105.514 456.768 106.385 456.612 107.219C456.456 108.054 456.091 108.813 455.565 109.397C455.039 109.981 454.377 110.364 453.664 110.494L453.591 110.507C453.769 112.636 454.082 114.745 454.53 116.818C450.228 136.544 459.515 143.729 472.777 144.052C473.07 144.23 473.355 144.408 473.648 144.577C471.13 153.038 469.55 161.852 468.949 170.797C468.609 176.074 468.629 181.375 469.009 186.648L468.986 186.461C468.026 180.597 465.387 175.306 461.518 171.482C455.77 165.884 447.65 163.822 441.45 159.322C440.791 158.821 440.024 158.553 439.241 158.551C438.458 158.548 437.691 158.812 437.03 159.31C436.369 159.807 435.842 160.519 435.511 161.36C435.18 162.202 435.058 163.138 435.161 164.059C435.169 164.124 435.178 164.19 435.186 164.255C436.111 164.701 437.011 165.216 437.881 165.795C438.379 166.128 438.867 166.482 439.344 166.856C439.943 167.33 440.408 168.009 440.676 168.802C440.945 169.595 441.005 170.466 440.849 171.3C440.693 172.134 440.328 172.894 439.802 173.478C439.276 174.062 438.614 174.444 437.902 174.575L437.829 174.588C437.776 174.597 437.731 174.606 437.678 174.615C439.258 179.086 441.474 183.202 444.231 186.781C446.921 204.002 458.474 205.636 470.833 200.621H470.84C472.196 207.607 474.161 214.408 476.703 220.913H497.645C497.72 220.637 497.787 220.352 497.855 220.076C495.916 220.221 493.97 220.083 492.06 219.667C493.614 217.406 495.168 215.128 496.721 212.867C496.756 212.825 496.789 212.78 496.819 212.734C497.607 211.577 498.403 210.429 499.191 209.272L499.191 209.27C499.233 205.724 498.89 202.185 498.17 198.743L498.169 198.742Z" fill="#F2F2F2"/>
<path d="M332.227 273.983L339.738 265.507L315.739 227.123L304.654 239.633L332.227 273.983Z" fill="#FFB6B6"/>
<path d="M324.88 270.65L336.198 256.259L341.091 262.355L359.997 258.822C360.931 258.648 361.888 258.832 362.727 259.347C363.567 259.863 364.245 260.683 364.663 261.688C365.082 262.693 365.218 263.831 365.053 264.934C364.888 266.038 364.429 267.05 363.744 267.823L349.459 283.944L342.156 280.694L346.035 287.808L340.649 293.887L324.88 270.65Z" fill="#2F2E41"/>
<path d="M330.943 245.055L320.61 261.763C311.864 256.238 283.95 234.316 262.57 222.832C248.751 215.391 238.089 209.732 238.089 209.732C238.089 209.732 236.651 212.15 234.359 215.948C225.97 229.871 206.158 262.274 204.27 261.071C201.875 259.545 199.16 262.274 199.498 267.865C199.742 271.942 193.927 274.916 190.752 276.241C189.559 276.732 188.742 276.999 188.742 276.999C188.197 277.411 187.652 277.823 187.117 278.213C169.728 290.811 149.353 287.258 135.355 273.758C130.342 268.962 126.253 262.948 123.364 256.122C120.475 249.295 118.852 241.814 118.606 234.182L117.356 199.652L159.63 197.424L167.154 214.366L180.503 201.468L209.728 173.231L220.4 162.917C220.4 162.917 220.118 162.872 220.456 161.357C221.793 160.498 223.192 159.782 224.636 159.219C224.881 159.118 225.125 159.029 225.369 158.951C239.131 154.139 249.568 166.659 249.568 166.659C249.568 166.659 313.405 217.843 315.913 218.322C318.421 218.812 319.864 223.589 320.165 224.725C320.456 225.794 324.452 231.833 326.246 231.688C331.845 231.254 330.943 245.055 330.943 245.055Z" fill="#2F2E41"/>
<path d="M204.215 141.645C203.037 142.109 201.959 142.875 201.06 143.889C200.16 144.903 199.46 146.14 199.01 147.512L160.247 147.259L139.627 113.44L124.299 121.486L149.246 175.08L203.855 160.635L203.823 160.5C205.087 161.083 206.452 161.296 207.801 161.122C209.15 160.947 210.444 160.391 211.573 159.499C212.702 158.606 213.634 157.405 214.289 155.996C214.944 154.587 215.303 153.012 215.337 151.403C215.37 149.795 215.077 148.2 214.481 146.755C213.885 145.309 213.005 144.055 211.914 143.098C210.823 142.141 209.554 141.509 208.214 141.256C206.874 141.004 205.502 141.137 204.215 141.645L204.215 141.645Z" fill="#FFB6B6"/>
<path d="M132.384 90.3954L131.58 90.5352C127.375 91.2601 123.577 93.908 120.999 97.9121C118.42 101.916 117.267 106.958 117.785 111.958C118.407 117.872 118.77 123.164 118.224 124.217C116.882 126.808 116.369 128.979 119.002 129.304C121.635 129.628 116.148 127.717 124.535 129.38C132.923 131.043 131.439 125.758 138.272 125.41C145.104 125.061 149.715 127.151 151.867 122.586C154.019 118.02 160.02 117.833 156.724 113.348C153.428 108.862 152.535 112.736 149.865 103.224C149.838 103.129 149.812 103.035 149.785 102.94C148.579 98.7668 146.178 95.2261 142.999 92.9341C139.82 90.6421 136.064 89.7438 132.384 90.3954Z" fill="#174624"/>
<path d="M109.753 78.588C108.756 79.7401 107.696 80.8118 106.578 81.7959C106.249 82.0967 105.921 82.3751 105.592 82.6313C96.0568 90.2836 86.644 87.0088 79.3072 79.0224C67.9686 66.6585 61.5995 43.0111 67.4801 31.0036C80.6506 11.9565 97.7477 16.0443 108.138 28.9875C118.227 41.5408 122.003 62.4369 109.753 78.588Z" fill="#F2F2F2"/>
<path d="M151.147 94.4473C150.339 93.8346 149.531 93.2443 148.704 92.6762C148.338 92.0859 147.962 91.5067 147.577 90.9386L151.147 94.4473Z" fill="#F2F2F2"/>
<path d="M128.113 43.9223C140.623 55.2065 154.556 64.1872 157.182 76.6055C157.182 76.6055 155.609 57.0937 162.947 60.792C175.276 67.0061 171.105 33.2115 167.647 27.6854C161.884 18.4752 142.453 13.2419 142.453 13.2419L128.668 22.2144L128.113 43.9223Z" fill="#2F2E41"/>
<path d="M185.724 396.361C185.98 397.245 186.465 398.01 187.111 398.546C187.756 399.082 188.528 399.362 189.316 399.345L204.708 398.875C205.501 398.857 206.269 398.534 206.895 397.956C207.521 397.378 207.973 396.575 208.183 395.667L210.361 368.051C211.133 368.466 211.975 368.671 212.823 368.651C213.56 368.63 214.287 368.437 214.961 368.083C215.636 367.729 216.245 367.22 216.753 366.587C217.262 365.953 217.66 365.207 217.926 364.391C218.191 363.575 218.318 362.705 218.299 361.831C218.281 360.956 218.117 360.095 217.818 359.295C217.518 358.496 217.089 357.775 216.554 357.172C216.019 356.57 215.39 356.098 214.701 355.785C214.012 355.471 213.279 355.321 212.541 355.344C212.202 355.343 211.864 355.385 211.532 355.469C211.172 355.006 210.734 354.638 210.246 354.389C209.758 354.139 209.232 354.014 208.701 354.02L185.025 354.745C184.829 354.753 184.633 354.782 184.441 354.831C183.922 354.945 183.429 355.191 182.997 355.55C182.564 355.909 182.202 356.375 181.933 356.914C181.665 357.453 181.497 358.055 181.442 358.678C181.386 359.3 181.443 359.93 181.61 360.524L185.724 396.361ZM210.807 366.176L212.357 359.596C212.533 358.835 212.538 358.033 212.369 357.271C212.444 357.271 212.511 357.228 212.586 357.228C213.648 357.202 214.676 357.677 215.444 358.548C216.212 359.42 216.657 360.616 216.682 361.876C216.707 363.136 216.309 364.356 215.577 365.269C214.844 366.182 213.836 366.713 212.774 366.747C212.087 366.772 211.407 366.575 210.807 366.176Z" fill="#CCCCCC"/>
<path d="M184.441 354.831C184.946 358.251 190.617 360.655 197.436 360.237C203.706 359.894 208.833 357.283 209.773 354.189C209.425 354.067 209.063 354.01 208.701 354.02L185.025 354.745C184.829 354.753 184.634 354.782 184.441 354.831Z" fill="white"/>
<path d="M149.897 57.6157C161.83 57.6157 171.504 46.1457 171.504 31.9968C171.504 17.8479 161.83 6.37787 149.897 6.37787C137.964 6.37787 128.291 17.8479 128.291 31.9968C128.291 46.1457 137.964 57.6157 149.897 57.6157Z" fill="#FFB6B6"/>
<path d="M142.116 22.1945L141.285 26.5245L155.819 30.4477C155.832 29.572 155.997 28.7089 156.305 27.9125C156.612 27.1162 157.055 26.4039 157.606 25.8202C157.293 27.518 157.328 29.2804 157.71 30.9583C165.549 36.1736 165.098 38.0213 171.433 36.6913C172.292 36.923 173.192 36.7409 173.937 36.1851C174.682 35.6294 175.211 34.7454 175.406 33.7278C177.955 20.4521 178.793 6.8835 167.651 3.58825C164.943 2.78537 162.127 2.63168 159.368 3.13615C156.609 3.64063 153.963 4.79312 151.585 6.52609C149.206 8.25906 147.144 10.5376 145.518 13.2282C143.892 15.9187 142.735 18.967 142.116 22.1945Z" fill="#2F2E41"/>
<path d="M252.447 183.268C252.396 183.195 252.336 183.13 252.27 183.075C252.109 182.853 251.912 182.671 251.692 182.538L250.11 181.535L239.614 167.717C239.007 167.342 238.3 167.262 237.643 167.494L237.616 167.503L233.12 169.152L229.253 170.575L223.851 172.561L187.058 186.069L162.873 194.948C162.219 195.193 161.673 195.733 161.352 196.451C161.03 197.169 160.959 198.009 161.155 198.788C161.268 199.217 161.456 199.614 161.707 199.952L162.476 200.967L164.091 203.099L167.831 212.289L168.868 213.662C169.199 214.1 169.628 214.416 170.104 214.575C170.581 214.733 171.086 214.728 171.56 214.558L251.236 188.288C251.65 188.129 252.024 187.852 252.326 187.481C252.629 187.11 252.849 186.656 252.969 186.161C253.089 185.665 253.104 185.141 253.013 184.637C252.922 184.132 252.727 183.662 252.447 183.268L252.447 183.268Z" fill="#CCCCCC"/>
<path d="M247.717 46.5904L246.174 46.8869C245.751 46.9701 245.373 47.2482 245.122 47.6607L244.442 48.7878L238.311 66.9681C238.061 67.3838 237.961 67.9 238.032 68.4032L238.75 73.5831L236.035 166.04C236.104 166.518 236.32 166.949 236.643 167.248L248.548 186.13L248.825 186.392L249.425 186.949C249.733 187.23 250.114 187.374 250.502 187.355L251.514 187.298C251.744 187.284 251.968 187.214 252.173 187.09C252.378 186.966 252.559 186.792 252.703 186.579C252.848 186.368 252.953 186.123 253.012 185.86C253.07 185.596 253.08 185.321 253.04 185.053L249.587 48.1722C249.517 47.6695 249.281 47.2202 248.932 46.9233C248.583 46.6263 248.149 46.506 247.725 46.5888L247.717 46.5904Z" fill="#CCCCCC"/>
<path d="M245.133 53.7741L239.701 73.3938L237.601 151.758L246.055 160.669L245.133 53.7741Z" fill="#174624"/>
<path d="M137.258 63.9522L130.316 60.0943L123.481 74.1966C123.481 74.1966 105.123 105.259 104.857 127.667C104.59 150.076 107.848 156.74 107.848 156.74C107.848 156.74 99.9333 163.757 103.891 168.045C107.848 172.334 116.61 174.185 109.881 176.044C103.151 177.904 104.857 196.727 112.372 200.069C119.887 203.41 160.248 203.381 160.248 203.381C159.885 201.922 159.858 200.374 160.171 198.898C160.483 197.422 161.122 196.072 162.023 194.989C165.152 191.27 167.97 193.939 165.152 188.149C162.334 182.359 157.637 185.701 161.394 177.904C165.152 170.107 165.151 167.777 165.151 167.777C165.151 167.777 163.136 112.799 151.598 94.0463L151.844 93.5304C152.227 87.4284 151.037 81.3324 148.433 76.0501C145.828 70.7679 141.931 66.5489 137.258 63.9522Z" fill="#174624"/>
<path d="M145.671 39.47C146.383 35.7719 147.778 32.3071 149.755 29.3256C151.733 26.3441 154.244 23.9203 157.108 22.229C159.971 20.5377 163.116 19.6212 166.314 19.5454C169.513 19.4696 172.685 20.2365 175.604 21.7908C174.593 18.2534 172.547 15.2622 169.837 13.3588L153.477 4.93697C145.407 2.75873 132.633 -3.42376 126.804 2.49679C121.434 7.93566 124.048 18.5821 119.103 24.5447C113.683 31.0791 113.223 38.8055 114.76 43.2495C116.538 48.3908 120.095 55.405 124.534 56.9232C124.765 55.1138 125.526 53.4588 126.684 52.2487C126.364 53.9731 126.336 55.7556 126.602 57.4929L153.477 82.9076C150.967 80.319 148.828 73.6493 147.356 66.1371C146.484 61.6904 141.282 60.1298 145.501 52.583C149.719 45.0362 145.098 42.4536 145.671 39.47Z" fill="#2F2E41"/>
<path d="M135.628 295.656H145.022V383.652C145.022 385.129 144.527 386.545 143.646 387.59C142.765 388.634 141.571 389.221 140.325 389.221C139.079 389.221 137.885 388.634 137.004 387.59C136.123 386.545 135.628 385.129 135.628 383.652V295.656Z" fill="#F2F2F2"/>
<path d="M108.365 398.381L121.51 377.709C125.681 371.15 129.68 364.33 134.086 358.004C135.652 355.756 137.47 353.432 139.786 352.753C140.698 352.475 141.659 352.524 142.548 352.892C143.599 353.327 144.568 354 145.402 354.874C147.339 357.001 148.964 359.495 150.21 362.254C151.851 365.633 153.368 369.101 154.781 372.622C157.981 380.643 160.584 388.981 162.56 397.54C163.524 401.681 168.963 399.922 167.995 395.764C166.039 387.391 163.521 379.218 160.464 371.323C158.976 367.468 157.356 363.69 155.606 359.988C154.147 356.701 152.309 353.672 150.145 350.987C147.956 348.244 145.04 346.476 141.883 345.977C138.496 345.54 135.355 347.349 132.84 349.891C130.314 352.445 128.416 355.822 126.432 358.942L119.44 369.938L103.499 395.008C102.582 396.45 103.304 398.744 104.51 399.58C105.159 400.006 105.922 400.119 106.64 399.896C107.358 399.673 107.976 399.13 108.365 398.381H108.365Z" fill="#F2F2F2"/>
<path d="M198.568 175.359C197.327 175.357 196.101 175.681 194.977 176.306C193.853 176.932 192.86 177.843 192.068 178.976L155.356 164.22L144.799 124.41L128.113 126.305L137.507 186.497L193.168 193.242L193.174 193.101C194.219 194.128 195.457 194.841 196.783 195.181C198.109 195.521 199.485 195.477 200.794 195.054C202.103 194.63 203.307 193.839 204.304 192.748C205.301 191.656 206.062 190.296 206.522 188.783C206.982 187.269 207.128 185.646 206.948 184.051C206.768 182.457 206.266 180.937 205.486 179.62C204.706 178.304 203.67 177.229 202.466 176.488C201.262 175.746 199.925 175.359 198.568 175.359L198.568 175.359Z" fill="#FFB6B6"/>
<path d="M144.065 99.8327L143.265 99.6639C139.082 98.7772 134.773 99.8673 131.26 102.701C127.747 105.534 125.31 109.886 124.469 114.824C123.485 120.668 122.419 125.826 121.621 126.62C119.658 128.576 118.593 130.444 121.004 131.738C123.416 133.032 118.719 129.164 126.234 133.882C133.749 138.601 133.749 133.032 140.325 135.259C146.901 137.487 150.718 141.197 153.976 137.671C157.234 134.145 162.978 136.215 161.046 130.725C159.113 125.235 157.234 128.576 157.234 118.551C157.234 118.451 157.234 118.351 157.234 118.252C157.202 113.84 155.867 109.582 153.461 106.217C151.055 102.851 147.73 100.592 144.065 99.8327Z" fill="#174624"/>
<path d="M402.808 289.609C423.301 289.609 439.915 286.368 439.915 282.369C439.915 278.371 423.301 275.129 402.808 275.129C382.315 275.129 365.702 278.371 365.702 282.369C365.702 286.368 382.315 289.609 402.808 289.609Z" fill="#E6E6E6"/>
<path d="M440.107 240.554C440.122 251.185 436.88 261.461 430.985 269.471C429.516 271.481 427.893 273.325 426.136 274.979C423.472 277.517 420.523 279.602 417.374 281.176H388.515C385.366 279.602 382.417 277.517 379.753 274.979C377.997 273.325 376.374 271.481 374.905 269.471C373.179 267.116 371.667 264.552 370.393 261.822C367.739 256.11 366.187 249.772 365.849 243.263C365.512 236.754 366.397 230.237 368.44 224.183C370.484 218.129 373.635 212.688 377.667 208.253C381.698 203.817 386.51 200.498 391.755 198.535C396.999 196.572 402.546 196.013 407.995 196.899C413.443 197.785 418.658 200.094 423.263 203.659C427.868 207.224 431.748 211.957 434.624 217.516C437.5 223.074 439.299 229.321 439.892 235.804C440.037 237.381 440.109 238.967 440.107 240.554Z" fill="#3F3D56"/>
<path d="M430.985 269.471C429.516 271.481 427.892 273.325 426.136 274.979H379.753C377.997 273.325 376.373 271.481 374.904 269.471H430.985Z" fill="#174624"/>
<path d="M439.892 235.804C432.129 250.09 417.839 261.175 400.442 264.542C390.389 266.569 380.07 265.635 370.393 261.822C367.739 256.11 366.187 249.772 365.849 243.263C365.512 236.754 366.397 230.237 368.44 224.183C370.484 218.129 373.635 212.688 377.667 208.253C381.698 203.817 386.51 200.498 391.755 198.535C396.999 196.572 402.546 196.013 407.994 196.899C413.443 197.785 418.658 200.094 423.263 203.659C427.868 207.224 431.748 211.957 434.624 217.516C437.5 223.074 439.299 229.321 439.892 235.804Z" fill="#174624"/>
<path d="M318.895 303.1L327.13 295.628L306.742 254.413L294.589 265.441L318.895 303.1Z" fill="#FFB6B6"/>
<path d="M311.892 298.851L324.446 285.983L328.76 292.666L347.877 291.558C348.821 291.504 349.756 291.808 350.543 292.427C351.331 293.047 351.932 293.949 352.257 295.001C352.582 296.054 352.615 297.202 352.35 298.278C352.086 299.354 351.539 300.302 350.788 300.983L335.126 315.195L328.16 311.034L331.373 318.601L325.468 323.96L311.892 298.851Z" fill="#2F2E41"/>
<path d="M320.236 274.175L308.451 289.472C300.255 282.867 274.486 257.521 254.267 243.384C241.201 234.229 231.112 227.247 231.112 227.247C231.112 227.247 229.465 229.467 226.842 232.952C217.242 245.728 194.613 275.424 192.845 273.988C190.601 272.166 187.655 274.534 187.485 280.136C187.359 284.22 181.309 286.438 178.032 287.352C176.802 287.687 175.965 287.849 175.965 287.849C175.386 288.19 174.807 288.53 174.239 288.85C155.812 299.163 135.875 293.039 123.18 277.837C118.629 272.431 115.108 265.932 112.853 258.778C110.598 251.623 109.662 243.979 110.107 236.359L111.988 201.869L154.219 205.031L160.168 222.832L174.607 211.706L206.217 187.349L217.76 178.451C217.76 178.451 217.484 178.371 217.957 176.908C219.364 176.224 220.82 175.691 222.307 175.314C222.559 175.245 222.81 175.187 223.06 175.141C237.178 172.107 246.422 185.882 246.422 185.882C246.422 185.882 305.26 244.89 307.71 245.685C310.16 246.491 311.162 251.424 311.358 252.592C311.551 253.692 314.978 260.204 316.775 260.288C322.381 260.568 320.236 274.175 320.236 274.175Z" fill="#2F2E41"/>
<path d="M130.016 313.369C121.176 290.936 56.7145 312.622 52.4778 263.601C51.3129 249.333 60.3312 237.002 68.8985 226.888C129.838 176.92 10.8527 139.995 57.0808 90.6623C64.1013 85.8139 71.5562 81.9097 79.3071 79.0224C90.007 75.2909 97.9919 75.9815 104.042 79.88C104.923 80.4502 105.77 81.0903 106.578 81.7959C133.088 105.02 117.052 198.852 144.878 227.991C155.474 237.904 202.341 257.107 209.866 272.078C210.064 272.481 210.243 272.897 210.401 273.325C212.976 279.201 154.894 295.207 159.673 308.969C166.249 327.905 129.448 355.512 130.016 313.369Z" fill="#F2F2F2"/>
<path d="M4.95028e-06 399.675C-0.000432877 399.849 0.0281761 400.021 0.0842039 400.182C0.140232 400.343 0.222552 400.49 0.326451 400.613C0.430351 400.736 0.553789 400.834 0.689622 400.9C0.825455 400.967 0.971025 401.001 1.11796 401H613.882C614.179 401 614.463 400.86 614.673 400.612C614.882 400.363 615 400.026 615 399.675C615 399.323 614.882 398.986 614.673 398.737C614.463 398.489 614.179 398.349 613.882 398.349H1.1179C0.970974 398.348 0.825389 398.382 0.689565 398.449C0.553741 398.515 0.430344 398.613 0.326451 398.736C0.222559 398.859 0.14023 399.006 0.0842039 399.167C0.0281779 399.328 -0.000427854 399.5 4.95028e-06 399.675Z" fill="#CCCCCC"/>
<path d="M181.28 195.861C181.28 202.936 186.317 216.518 156.855 216.518C127.393 216.518 74.5869 202.936 74.5869 195.861C74.5869 188.787 98.4709 183.052 127.933 183.052C157.396 183.052 181.28 188.787 181.28 195.861Z" fill="#F2F2F2"/>
</g>
<defs>
<clipPath id="clip0_47_1004">
<rect width="615" height="401" fill="white"/>
</clipPath>
</defs>
</svg>
