<svg width="703" height="484" viewBox="0 0 823 564" fill="none" xmlns="http://www.w3.org/2000/svg">
<g clip-path="url(#clip0_11_27)">
<path opacity="0.1" d="M273.613 563.683C313.693 563.683 346.184 558.634 346.184 552.406C346.184 546.179 313.693 541.13 273.613 541.13C233.534 541.13 201.043 546.179 201.043 552.406C201.043 558.634 233.534 563.683 273.613 563.683Z" fill="#174624"/>
<path opacity="0.1" d="M668.095 564C718.108 564 758.652 558.951 758.652 552.724C758.652 546.496 718.108 541.447 668.095 541.447C618.082 541.447 577.539 546.496 577.539 552.724C577.539 558.951 618.082 564 668.095 564Z" fill="#174624"/>
<path opacity="0.1" d="M10.3076 243.689H85.8943V343.362H15.8412C15.6551 344.385 15.4763 345.415 15.2827 346.446H85.8943V426.83C85.7676 426.794 85.6559 426.75 85.5368 426.707C83.5408 425.943 81.5597 425.136 79.5786 424.272L78.3125 423.717C76.3264 422.809 74.3404 421.848 72.3543 420.835C71.6617 420.482 70.9691 420.114 70.2839 419.74C59.2582 413.764 49.2419 406.193 40.5825 397.287C40.3293 397.05 40.0909 396.797 39.8377 396.567C38.6312 395.299 37.447 394.016 36.3001 392.705L35.0339 391.264C33.6785 389.657 32.3677 388.007 31.0941 386.335C30.9079 386.09 30.7292 385.845 30.5355 385.614C25.356 378.666 21.0554 371.143 17.7255 363.206C17.6212 362.968 17.5319 362.708 17.435 362.485C16.4122 359.939 15.5061 357.369 14.7166 354.775C14.374 353.687 14.0463 352.613 13.7633 351.482C13.6591 351.151 13.5697 350.827 13.4878 350.502C9.25748 334.528 8.75848 317.934 8.75848 301.455C8.75848 299.531 8.75848 297.6 8.75848 295.69C8.75848 289.025 8.84041 282.317 8.95957 275.616C8.95957 273.879 9.03405 272.15 9.07129 270.406C9.17555 265.982 9.32451 261.558 9.51815 257.134C9.56284 255.902 9.62242 254.677 9.68945 253.452C9.68945 252.746 9.72669 252.04 9.80116 251.334C9.97991 248.768 10.1289 246.225 10.3076 243.689Z" fill="#174624"/>
<path opacity="0.1" d="M85.8943 132.71H44.433C51.1727 122.504 58.5367 112.697 66.4856 103.341C72.6448 96.0199 79.1467 88.8865 85.8943 82.0125V132.71Z" fill="#174624"/>
<path opacity="0.1" d="M85.8943 135.794V240.605H10.5459C10.5459 240.302 10.5981 239.992 10.6204 239.69C10.6874 238.861 10.7545 238.032 10.8289 237.211C10.9109 236.245 11.0002 235.273 11.0971 234.329C11.1939 233.385 11.2981 232.232 11.4099 231.187C11.5216 230.142 11.6258 229.083 11.7525 228.038C11.8791 226.994 11.9908 225.949 12.1248 224.911C12.2589 223.874 12.3781 222.822 12.5196 221.784C12.6313 220.919 12.7504 220.062 12.8696 219.197C13.0409 217.979 13.2197 216.755 13.4133 215.544C13.4133 215.364 13.4654 215.177 13.4952 215.004C14.8546 206.142 16.7068 197.358 19.0437 188.689C21.49 179.596 24.6138 170.686 28.3906 162.029C32.4047 152.973 37.1045 144.216 42.4518 135.83L85.8943 135.794Z" fill="#174624"/>
<path opacity="0.1" d="M103.94 243.682V343.362H265.384V243.682H103.94ZM103.94 346.439V432.039C104.864 432.227 105.78 432.407 106.688 432.558C107.925 432.789 109.153 432.998 110.412 433.178C110.65 433.214 110.896 433.25 111.157 433.272C111.648 433.351 112.155 433.416 112.646 433.48C113.89 433.646 115.126 433.783 116.37 433.891C116.959 433.949 117.554 433.999 118.15 434.043L119.588 434.151C120.37 434.208 121.144 434.251 121.911 434.273C122.388 434.273 122.865 434.316 123.356 434.331C123.729 434.331 124.101 434.331 124.488 434.331C124.875 434.331 125.427 434.331 125.896 434.331C126.536 434.331 127.177 434.331 127.81 434.331H128.666C129.307 434.331 129.947 434.331 130.58 434.273H130.625C131.065 434.273 131.511 434.273 131.958 434.215C132.082 434.223 132.207 434.223 132.331 434.215C132.703 434.215 133.075 434.215 133.433 434.165H133.694L136.189 433.978C137.008 433.906 137.834 433.812 138.669 433.725L140.367 433.531C147.275 432.594 154.107 431.188 160.811 429.323C175.87 425.259 190.601 419.574 205.653 415.409C225.114 410.041 246.615 407.404 265.421 413.968V346.439H103.94ZM265.384 132.71V0.00732812C247.708 -0.177941 230.081 1.82215 212.93 5.95904C172.049 15.8954 135.369 37.4469 103.94 64.9717V132.703H112.043V135.78H103.94V240.605H265.384V135.787H145.312V132.71H265.384ZM472.75 87.8851C462.636 87.5392 452.581 84.4409 443.488 79.6565C426.097 70.5055 412.208 56.3756 396.687 44.4506C364.438 19.6134 324.444 4.62603 283.415 0.90801V132.71H513.883L514.457 132.127L472.75 87.8851ZM493.745 84.2824L516.006 107.916V78.0857C508.551 78.9792 502.019 81.1048 493.775 84.2535L493.745 84.2824ZM516.006 453.295V346.439H468.572C468.445 345.985 468.318 345.523 468.169 345.062C468.311 345.523 468.43 345.985 468.564 346.439H283.444V423.717C285.202 424.978 286.937 426.304 288.658 427.651C290.512 429.092 292.344 430.613 294.184 432.104L296.038 433.589C296.925 434.309 297.818 435.03 298.72 435.707C300.507 437.11 302.312 438.493 304.134 439.857C305.035 440.578 305.959 441.226 306.875 441.904C321.418 452.661 336.759 462.369 352.775 470.949C356.365 472.87 359.987 474.746 363.641 476.576C366.077 477.78 368.527 478.976 370.985 480.136C374.679 481.88 378.402 483.561 382.156 485.18C416.763 500.209 453.357 510.522 490.892 515.824C499.229 517.016 507.598 517.952 515.999 518.635V453.288H516.743L516.006 453.295ZM283.444 135.787V240.605H516.036V135.787H283.444ZM283.444 243.682V343.362H516.036V243.682H283.444ZM534.089 77.956V111.231L562.502 81.0687C553.088 79.5988 543.617 78.5492 534.089 77.92V77.956ZM534.089 243.718V343.362H760.313V243.682L534.089 243.718ZM759.486 461.207L760.283 346.439H534.089V519.78C548.66 520.372 563.254 520.204 577.807 519.276H578.06C585.011 518.853 591.93 518.238 598.817 517.431H598.973C635.713 513.294 671.638 504.02 705.624 489.899M803.934 260.096C803.085 258.157 802.199 256.233 801.297 254.331C799.614 250.728 797.834 247.227 796.002 243.725H778.351V343.362H822.978C822.955 315.145 815.575 286.323 803.956 260.06L803.934 260.096ZM733.903 547.586V646.301C746.475 634.643 757.095 621.305 764.744 606.058C773.942 587.699 778.15 567.819 778.493 547.572L733.903 547.586ZM733.903 415.784V441.724H749.901C770.84 407.919 784.196 370.232 789.102 331.11C794.007 291.987 790.352 252.303 778.373 214.636L733.903 415.784ZM580.481 298.623C579.304 298.191 578.127 297.751 576.943 297.326C564.454 292.864 551.692 289.153 538.729 286.215L495.249 332.381L538.863 132.127L539.422 132.717H694.17C672.618 118.365 649.383 106.535 624.951 97.4756L580.481 298.623ZM654.258 336.935H537.262L534.089 339.745V240.605H561.899H561.943H760.343V191.211C742.395 170.212 721.681 151.578 698.728 135.787L654.258 336.935Z" fill="#174624"/>
<path opacity="0.1" d="M85.8943 188.66V240.605H10.5459C10.5459 240.302 10.5981 239.992 10.6204 239.69C10.6874 238.861 10.7545 238.032 10.8289 237.211C10.9109 236.245 11.0002 235.273 11.0971 234.329C11.1939 233.385 11.2981 232.232 11.4099 231.187C11.5216 230.142 11.6258 229.083 11.7525 228.038C11.8791 226.994 11.9908 225.949 12.1248 224.911C12.2589 223.874 12.3781 222.822 12.5196 221.784C12.6313 220.919 12.7504 220.062 12.8696 219.197C13.0409 217.98 13.2197 216.755 13.4133 215.544C13.4133 215.364 13.4654 215.177 13.4952 215.004C14.8546 206.142 16.7068 197.358 19.0437 188.689L85.8943 188.66Z" fill="#174624"/>
<path opacity="0.1" d="M10.3076 243.689H85.8943V343.362H15.8412C15.6551 344.385 15.4763 345.415 15.2827 346.446H85.8943V426.83C85.7676 426.794 85.6559 426.75 85.5368 426.707C83.5408 425.943 81.5597 425.136 79.5786 424.272L78.3125 423.717C76.3264 422.809 74.3404 421.848 72.3543 420.835C71.6617 420.482 70.9691 420.114 70.2839 419.74C59.2582 413.764 49.2419 406.193 40.5825 397.287C40.3293 397.05 40.0909 396.797 39.8377 396.567C38.6312 395.299 37.447 394.016 36.3001 392.705L35.0339 391.264C33.6785 389.657 32.3677 388.007 31.0941 386.335C30.9079 386.09 30.7292 385.845 30.5355 385.614C25.356 378.666 21.0554 371.143 17.7255 363.206C17.6212 362.968 17.5319 362.708 17.435 362.485C16.4122 359.939 15.5061 357.369 14.7166 354.775C14.374 353.687 14.0463 352.613 13.7633 351.482C13.6591 351.151 13.5697 350.827 13.4878 350.502C9.25748 334.528 8.75848 317.934 8.75848 301.455C8.75848 299.531 8.75848 297.6 8.75848 295.69C8.75848 289.025 8.84041 282.317 8.95957 275.616C8.95957 273.879 9.03405 272.15 9.07129 270.406C9.17555 265.982 9.32451 261.558 9.51815 257.134C9.56284 255.902 9.62242 254.677 9.68945 253.452C9.68945 252.746 9.72669 252.04 9.80116 251.334C9.97991 248.768 10.1289 246.225 10.3076 243.689Z" fill="#174624"/>
<path opacity="0.1" d="M160.773 150.796V240.605H103.94V150.796H112.043V120.389H145.305V150.796H160.773Z" fill="#174624"/>
<path opacity="0.1" d="M160.773 243.681H103.947V343.354H160.773V243.681Z" fill="#174624"/>
<path opacity="0.1" d="M103.94 346.446H160.773V429.308C154.069 431.172 147.238 432.576 140.329 433.509L138.631 433.711C137.797 433.805 136.971 433.884 136.151 433.963C135.332 434.042 134.483 434.1 133.656 434.15H133.396C133.038 434.15 132.651 434.194 132.301 434.201H131.921C131.474 434.201 131.027 434.244 130.58 434.259C129.947 434.295 129.314 434.302 128.666 434.309C128.391 434.309 128.13 434.309 127.855 434.309C127.214 434.309 126.581 434.309 125.94 434.309H124.533C124.153 434.309 123.788 434.309 123.393 434.309L121.956 434.259C121.211 434.259 120.407 434.179 119.632 434.129L118.202 434.028L116.422 433.869C115.171 433.761 113.927 433.624 112.698 433.459L111.209 433.257L110.464 433.156C109.22 432.969 107.992 432.767 106.74 432.536C105.824 432.385 104.916 432.198 103.992 432.018L103.94 346.446Z" fill="#174624"/>
<path opacity="0.1" d="M516.036 140.189H469.175V240.597H516.036V140.189Z" fill="#174624"/>
<path opacity="0.1" d="M516.043 243.681V343.362H283.444V300.367H407.337V325.73H469.175V243.681H516.043Z" fill="#174624"/>
<path opacity="0.1" d="M516.781 453.317H516.036V518.707C507.645 518.02 499.278 517.085 490.937 515.904C453.383 510.584 416.774 500.249 382.156 485.194C372.161 480.842 362.37 476.091 352.782 470.942C336.767 462.358 321.424 452.65 306.875 441.896C303.22 439.187 299.613 436.415 296.053 433.581C293.588 431.614 291.138 429.597 288.658 427.637C286.937 426.289 285.202 424.964 283.444 423.695V346.446H468.557C468.43 345.984 468.304 345.523 468.169 345.069C468.311 345.523 468.445 345.984 468.572 346.446H516.036V453.274C516.289 453.281 516.535 453.303 516.781 453.317Z" fill="#174624"/>
<path opacity="0.1" d="M638.252 132.71H607.717V123.53H621.406V96.1856C622.592 96.6036 623.774 97.0335 624.951 97.4754V123.53H638.252V132.71Z" fill="#174624"/>
<path opacity="0.1" d="M711.821 240.605H561.914C561.914 240.605 561.914 240.605 561.966 240.641L561.899 240.605H534.089V140.197H541.969V214.413H577.978V170.46H607.724V135.794H638.26V170.488H668.006V214.442H711.821V240.605Z" fill="#174624"/>
<path opacity="0.1" d="M534.089 243.681V343.362H711.821V243.681H534.089ZM760.067 460.695L760.313 381.796H711.821V346.489H534.089V519.78C548.66 520.372 563.254 520.204 577.807 519.276H578.06C585.011 518.853 591.93 518.238 598.817 517.431H598.973C635.713 513.294 671.638 504.02 705.624 489.899" fill="#174624"/>
<path opacity="0.1" d="M781.509 346.446H822.97C822.605 366.686 818.405 386.566 809.214 404.925C801.566 420.179 790.938 433.516 778.381 445.168V381.76H781.509V346.446Z" fill="#174624"/>
<path opacity="0.1" d="M822.993 343.362H781.509V260.059H803.956C815.575 286.323 822.955 315.145 822.993 343.362Z" fill="#174624"/>
<path opacity="0.1" d="M516.043 168.103H490.937V199.584H516.043V168.103Z" fill="#174624"/>
<path opacity="0.1" d="M516.043 233.356H490.937V240.605H516.043V233.356Z" fill="#174624"/>
<path opacity="0.1" d="M516.043 243.681H490.937V264.829H516.043V243.681Z" fill="#174624"/>
<path opacity="0.1" d="M516.043 298.609H490.937V330.089H516.043V298.609Z" fill="#174624"/>
<path opacity="0.1" d="M516.043 363.861H490.937V395.342H516.043V363.861Z" fill="#174624"/>
<path opacity="0.1" d="M516.036 453.274C516.289 453.274 516.535 453.274 516.781 453.317H516.036V460.63H490.937V429.114H516.036V453.274Z" fill="#174624"/>
<path opacity="0.1" d="M516.036 494.352V518.671C507.645 517.984 499.278 517.049 490.937 515.868V494.352H516.036Z" fill="#174624"/>
<path opacity="0.1" d="M391.041 341.049H283.444V343.362H391.041V341.049Z" fill="#174624"/>
<path opacity="0.1" d="M391.041 346.438H283.444V355.301H391.041V346.438Z" fill="#174624"/>
<path opacity="0.1" d="M391.041 384.354H283.444V398.606H391.041V384.354Z" fill="#174624"/>
<path opacity="0.1" d="M391.034 427.658V441.911H306.875C303.22 439.211 299.611 436.439 296.046 433.596C293.581 431.629 291.138 429.611 288.65 427.658H391.034Z" fill="#174624"/>
<path opacity="0.1" d="M391.034 470.956V485.194H382.149C372.164 480.837 362.375 476.084 352.782 470.934L391.034 470.956Z" fill="#174624"/>
<path opacity="0.1" d="M598.996 253.344H577.814V273.836H598.996V253.344Z" fill="#174624"/>
<path opacity="0.1" d="M140.382 157.864H119.2V178.357H140.382V157.864Z" fill="#174624"/>
<path opacity="0.1" d="M140.382 205.464H119.2V225.956H140.382V205.464Z" fill="#174624"/>
<path opacity="0.1" d="M140.382 253.063H119.2V273.555H140.382V253.063Z" fill="#174624"/>
<path opacity="0.1" d="M140.382 300.655H119.2V321.147H140.382V300.655Z" fill="#174624"/>
<path opacity="0.1" d="M140.382 348.254H119.2V368.747H140.382V348.254Z" fill="#174624"/>
<path opacity="0.1" d="M140.382 395.853H119.2V416.346H140.382V395.853Z" fill="#174624"/>
<path opacity="0.1" d="M679.855 253.344H658.674V273.836H679.855V253.344Z" fill="#174624"/>
<path opacity="0.1" d="M598.996 303.89H577.814V324.383H598.996V303.89Z" fill="#174624"/>
<path opacity="0.1" d="M679.855 303.89H658.674V324.383H679.855V303.89Z" fill="#174624"/>
<path opacity="0.1" d="M598.996 354.429H577.814V374.922H598.996V354.429Z" fill="#174624"/>
<path opacity="0.1" d="M679.855 354.429H658.674V374.922H679.855V354.429Z" fill="#174624"/>
<path opacity="0.1" d="M598.996 404.976H577.814V425.468H598.996V404.976Z" fill="#174624"/>
<path opacity="0.1" d="M679.855 404.976H658.674V425.468H679.855V404.976Z" fill="#174624"/>
<path opacity="0.1" d="M598.996 455.522H577.814V476.014H598.996V455.522Z" fill="#174624"/>
<path opacity="0.1" d="M679.855 455.522H658.674V476.014H679.855V455.522Z" fill="#174624"/>
<path opacity="0.1" d="M577.814 519.276V506.061H598.988V517.395L577.814 519.276Z" fill="#174624"/>
<path opacity="0.1" d="M13.4059 214.989V226.713H85.8943V214.989H13.4059ZM20.6301 225.978H14.7166V215.71H20.6748L20.6301 225.978ZM27.8469 225.978H21.8888V215.71H27.8469V225.978ZM35.0489 225.978H29.0907V215.71H35.0489V225.978ZM42.2657 225.978H36.315V215.71H42.2731L42.2657 225.978ZM49.475 225.978H43.5169V215.71H49.475V225.978ZM56.6919 225.978H50.7337V215.71H56.6919V225.978ZM63.9087 225.978H57.9505V215.71H63.9087V225.978ZM71.118 225.978H65.1599V215.71H71.118V225.978ZM78.3274 225.978H72.3693V215.71H78.3274V225.978ZM85.5368 225.978H79.5786V215.71H85.5368V225.978Z" fill="#174624"/>
<path opacity="0.1" d="M13.4059 249.1V260.823H85.8943V249.1H13.4059ZM20.6301 260.081H14.7166V249.842H20.6748L20.6301 260.081ZM27.8469 260.081H21.8888V249.842H27.8469V260.081ZM35.0489 260.081H29.0907V249.842H35.0489V260.081ZM42.2657 260.081H36.315V249.842H42.2731L42.2657 260.081ZM49.475 260.081H43.5169V249.842H49.475V260.081ZM56.6919 260.081H50.7337V249.842H56.6919V260.081ZM63.9087 260.081H57.9505V249.842H63.9087V260.081ZM71.118 260.081H65.1599V249.842H71.118V260.081ZM78.3274 260.081H72.3693V249.842H78.3274V260.081ZM85.5368 260.081H79.5786V249.842H85.5368V260.081Z" fill="#174624"/>
<path opacity="0.1" d="M13.4059 283.225V294.97H85.8943V283.225H13.4059ZM20.6301 294.206H14.7166V283.96H20.6748L20.6301 294.206ZM27.8469 294.206H21.8888V283.96H27.8469V294.206ZM35.0489 294.206H29.0907V283.96H35.0489V294.206ZM42.2657 294.206H36.315V283.96H42.2731L42.2657 294.206ZM49.475 294.206H43.5169V283.96H49.475V294.206ZM56.6919 294.206H50.7337V283.96H56.6919V294.206ZM63.9087 294.206H57.9505V283.96H63.9087V294.206ZM71.118 294.206H65.1599V283.96H71.118V294.206ZM78.3274 294.206H72.3693V283.96H78.3274V294.206ZM85.5368 294.206H79.5786V283.96H85.5368V294.206Z" fill="#174624"/>
<path opacity="0.1" d="M13.4059 317.35V329.059H85.8943V317.35H13.4059ZM20.6301 328.331H14.7166V318.078H20.6748L20.6301 328.331ZM27.8469 328.331H21.8888V318.078H27.8469V328.331ZM35.0489 328.331H29.0907V318.078H35.0489V328.331ZM42.2657 328.331H36.315V318.078H42.2731L42.2657 328.331ZM49.475 328.331H43.5169V318.078H49.475V328.331ZM56.6919 328.331H50.7337V318.078H56.6919V328.331ZM63.9087 328.331H57.9505V318.078H63.9087V328.331ZM71.118 328.331H65.1599V318.078H71.118V328.331ZM78.3274 328.331H72.3693V318.078H78.3274V328.331ZM85.5368 328.331H79.5786V318.078H85.5368V328.331Z" fill="#174624"/>
<path opacity="0.1" d="M13.7187 351.468C14.0091 352.57 14.3368 353.673 14.6794 354.761V352.203H20.6376V362.449H17.4499C17.5468 362.687 17.6436 362.946 17.7404 363.17H85.8943V351.468H13.7187ZM27.8693 362.449H21.9111V352.203H27.8693V362.449ZM35.0712 362.449H29.113V352.203H35.0712V362.449ZM42.288 362.449H36.315V352.203H42.2731L42.288 362.449ZM49.4974 362.449H43.5392V352.203H49.4974V362.449ZM56.7142 362.449H50.756V352.203H56.7142V362.449ZM63.931 362.449H57.9729V352.203H63.931V362.449ZM71.1404 362.449H65.1822V352.203H71.1404V362.449ZM78.3497 362.449H72.3916V352.203H78.3497V362.449ZM85.5591 362.449H79.601V352.203H85.5591V362.449Z" fill="#174624"/>
<path opacity="0.1" d="M30.5504 385.593C30.7366 385.823 30.9154 386.083 31.109 386.313H35.0489V391.235C35.4734 391.725 35.8904 392.215 36.3224 392.676V386.285H42.2806V396.567H39.8675C40.1058 396.805 40.3367 397.057 40.6123 397.287H85.9166V385.593H30.5504ZM49.475 396.567H43.5169V386.328H49.475V396.567ZM56.6919 396.567H50.7337V386.328H56.6919V396.567ZM63.9087 396.567H57.9505V386.328H63.9087V396.567ZM71.118 396.567H65.1599V386.328H71.118V396.567ZM78.3274 396.567H72.3692V386.328H78.3274V396.567ZM85.5368 396.567H79.5786V386.328H85.5368V396.567Z" fill="#174624"/>
<path opacity="0.1" d="M70.3137 419.711C70.9914 420.085 71.684 420.431 72.3841 420.806V420.446H78.3423V423.688L79.6084 424.257V420.446H85.5665V426.678C85.6808 426.733 85.8006 426.777 85.924 426.808V419.711H70.3137Z" fill="#174624"/>
<path opacity="0.1" d="M561.914 240.605H561.958H561.914ZM516.036 453.267H516.781H516.036ZM468.169 345.062C468.311 345.523 468.43 345.984 468.564 346.438C468.445 345.984 468.318 345.523 468.169 345.062ZM561.914 240.583H561.958H561.914ZM112.073 132.689V135.765H145.342V132.689H112.073ZM516.036 453.267H516.781H516.036ZM468.169 345.062C468.311 345.523 468.43 345.984 468.564 346.438C468.445 345.984 468.318 345.523 468.169 345.062ZM561.914 240.583H561.958H561.914ZM516.036 453.245H516.781H516.036ZM468.169 345.062C468.311 345.523 468.43 345.984 468.564 346.438C468.445 345.984 468.318 345.523 468.169 345.062Z" fill="#174624"/>
<path d="M343.786 273.57C343.786 273.57 340.851 273.173 340.851 269.037C340.851 264.901 338.751 257.177 338.751 257.177C338.751 257.141 336.934 243.725 334.424 241.592C331.914 239.459 328.689 226.936 328.689 226.936C328.689 226.936 328.138 220.141 327.013 218.678C325.889 217.216 324.369 213.635 322.128 208.526C319.886 203.417 310.539 199.879 310.539 199.879C310.539 199.879 293.64 190.397 288.851 187.306C288.416 187.052 288.009 186.755 287.637 186.42C286.803 185.36 283.169 185.339 283.169 185.339C282.789 183.019 282.424 180.353 282.305 177.939C282.305 177.679 282.305 177.42 282.268 177.161C287.608 174.107 291.63 169.292 293.596 163.6C293.685 163.326 293.759 163.038 293.841 162.764C294.161 162.662 294.456 162.497 294.706 162.278C294.956 162.06 295.156 161.793 295.294 161.496C295.726 160.566 295.733 159.478 296.269 158.614C296.895 157.591 298.087 157.043 299.025 156.272C301.393 154.327 302.004 151.048 301.892 148.065C301.818 145.651 301.416 143.216 301.572 140.816L301.617 140.211C301.661 139.851 301.714 139.49 301.781 139.145C302.146 137.358 302.942 135.672 303.389 133.899C303.836 132.126 303.881 130.131 302.838 128.603C301.311 126.362 298.131 125.915 295.338 125.685C292.173 125.425 289.343 125.764 287.317 123.221C286.369 121.891 285.302 120.645 284.13 119.495C283.712 119.121 279.661 116.728 279.661 116.57C275.707 114.798 271.224 114.465 267.037 115.633C264.937 116.224 262.956 117.19 260.826 117.672C256.23 118.724 250.943 117.586 247.04 120.129C244.865 121.57 243.562 123.862 242.341 126.096C241.348 127.935 240.34 129.773 239.317 131.608C237.671 134.627 235.995 137.696 235.302 141.04C235.157 141.767 235.067 142.504 235.034 143.245V143.281C235.034 143.547 235.034 143.814 235.034 144.08V144.419C235.034 144.671 235.034 144.916 235.079 145.14C235.124 145.363 235.116 145.435 235.139 145.586C235.161 145.738 235.198 146.076 235.243 146.307C235.288 146.537 235.377 146.941 235.466 147.258C235.504 147.395 235.556 147.525 235.6 147.654C235.675 147.899 235.764 148.137 235.861 148.375C235.913 148.497 235.965 148.627 236.025 148.749C236.137 149.002 236.271 149.247 236.405 149.47C236.464 149.571 236.509 149.665 236.569 149.758C236.776 150.093 237.005 150.416 237.254 150.724C238.848 152.648 241.194 153.873 242.929 155.674C242.929 155.746 242.929 155.818 242.929 155.883C242.929 156.085 242.929 156.279 242.929 156.481C243.021 160.498 244.126 164.433 246.149 167.943C248.171 171.453 251.049 174.432 254.532 176.62C254.532 176.894 254.57 177.175 254.585 177.449C254.73 179.588 254.702 181.734 254.503 183.869C254.199 183.523 253.82 183.248 253.392 183.063C252.964 182.879 252.498 182.79 252.03 182.802C251.71 182.787 251.389 182.814 251.077 182.882L251.01 182.831V182.896C249.371 183.285 247.353 184.935 245.424 189.626C245.424 189.626 239.555 196.024 235.086 195.758C230.618 195.491 219.305 202.416 219.305 202.416C219.305 202.416 208.267 209.347 205.899 216.409C204.575 220.413 202.988 224.331 201.147 228.139L187.503 255.34L184.986 276.92C184.986 276.92 186.379 286.518 186.103 287.981C185.827 289.443 191.83 302.636 191.83 302.636C191.83 302.636 211.663 336.351 219.767 338.08L220.347 337.684C220.694 337.859 221.062 337.992 221.442 338.08L223.111 336.942C223.211 338.21 223.168 339.486 222.984 340.746C221.867 344.075 223.401 365.799 225.352 370.058C227.304 374.316 226.611 430.151 226.611 430.151L226.335 435.08C226.335 435.08 226.335 435.238 226.402 435.512L226.335 436.68L226.537 436.78C226.745 438.344 226.677 439.93 226.335 441.471C225.635 443.633 225.352 449.743 225.352 449.743C225.352 449.743 219.774 484.243 222.418 491.174C225.062 498.106 227.311 505.701 227.311 505.701C227.311 505.701 230.104 514.347 227.445 515.824C224.786 517.301 217.227 519.78 218.783 523.383C220.199 526.712 225.568 535.632 226.365 536.936L226.298 537.621L225.203 549.099C225.381 550.615 225.806 552.093 226.462 553.48C227.661 555.98 229.992 558.574 234.424 558.293C235.168 558.243 236.032 558.156 236.866 558.048C244.977 556.996 254.964 553.494 254.964 553.494C254.446 553.176 253.97 552.796 253.549 552.363C253.151 551.99 252.835 551.541 252.621 551.046C252.407 550.55 252.3 550.018 252.306 549.481C252.425 547.391 248.381 537.433 247.375 534.984C247.219 534.631 247.137 534.429 247.137 534.429C247.137 534.429 256.357 525.105 254.823 516.84C254.823 516.84 244.62 511.076 247.978 507.913C251.337 504.75 257.34 495.663 257.34 495.663C257.34 495.663 257.616 461.69 257.34 456.617C257.053 453.096 257.225 449.554 257.854 446.076C257.966 445.549 258.1 445.038 258.241 444.534C262.887 445.204 267.576 445.549 272.273 445.564C273.986 445.564 275.729 445.564 277.486 445.463C277.486 445.943 277.509 446.462 277.553 447.019C277.941 455.435 278.663 470.192 279.251 475.675C280.085 483.537 284.696 504.721 284.696 504.721C284.696 504.721 275.9 510.182 286.23 523.642C286.23 523.642 286.23 528.52 285.545 529.226C284.813 531.535 284.224 533.883 283.779 536.259C283.348 538.795 283.169 541.36 283.869 542.693C285.545 545.878 295.599 545.619 295.599 545.619L295.845 545.576C297.743 545.386 299.661 545.563 301.488 546.096C303.315 546.629 305.014 547.508 306.488 548.681C310.308 551.65 324.809 550.346 332.659 549.402C335.735 549.027 337.79 548.681 337.79 548.681C337.89 548.344 337.925 547.993 337.894 547.644C337.813 545.777 336.301 541.685 326.053 538.032C326.053 538.032 316.415 531.763 316.549 526.301H316.348H315.231C316.043 526.258 316.564 526.301 316.564 526.301C316.564 526.301 312.788 512.971 314.33 511.89C315.872 510.809 311.254 496.038 311.254 496.038C311.254 496.038 308.61 471.251 308.469 469.515C308.475 468.025 308.708 466.544 309.161 465.12L308.469 451.53C308.469 451.53 308.335 447.012 308.469 445.542C308.446 444.266 308.339 442.993 308.148 441.731C308.081 441.226 308.014 440.7 307.94 440.181C311.552 439.295 313.898 438.474 313.898 438.474L313.481 391.17C316.549 385.406 317.115 372.76 317.1 363.789C317.1 358.025 316.832 353.759 316.832 353.759L321.025 347.137C321.025 347.137 321.994 339.211 320.459 337.475C319.782 336.689 320.087 335.875 320.646 335.205C320.936 334.983 321.242 334.78 321.562 334.6C321.562 334.6 321.517 334.535 321.465 334.441C321.758 334.205 322.069 333.99 322.396 333.8C322.396 333.8 320.906 331.566 322.239 330.622C323.491 331.444 324.608 332.064 325.457 332.568C325.397 333.094 325.338 333.397 325.338 333.397L325.695 332.676C326.514 333.123 327.013 333.397 327.013 333.397C327.013 333.397 333.582 320.737 333.441 318.87C333.299 317.004 337.909 309.143 337.909 309.143C337.909 309.143 338.468 305.014 340.985 303.285C343.503 301.556 342.937 289.025 342.937 289.025C342.937 289.025 343.637 282.497 345.312 279.831C346.988 277.165 343.786 273.57 343.786 273.57ZM218.098 268.014L218.225 271.033C217.48 269.873 216.944 269.037 216.944 269.037L218.098 268.014Z" fill="url(#paint0_linear_11_27)"/>
<path d="M327.371 327.928L325.762 334.557C325.762 334.557 312.878 328.194 310.554 320.11C308.23 312.025 314.442 308.956 314.442 308.956L326.447 313.877L327.371 327.928Z" fill="white"/>
<path opacity="0.1" d="M327.371 327.928L325.762 334.557C325.762 334.557 312.878 328.194 310.554 320.11C308.23 312.025 314.442 308.956 314.442 308.956L326.447 313.877L327.371 327.928Z" fill="black"/>
<path d="M255.061 553.538C255.061 553.538 243.145 557.774 234.952 558.308C230.603 558.589 228.316 556.009 227.14 553.523C226.497 552.141 226.082 550.67 225.911 549.164L226.976 537.743L227.542 531.662L244.947 527.288L247.412 534.58L247.643 535.135C248.634 537.57 252.603 547.478 252.484 549.546C252.479 550.075 252.585 550.6 252.795 551.089C253.005 551.579 253.315 552.022 253.706 552.392C254.105 552.828 254.561 553.213 255.061 553.538Z" fill="white"/>
<path d="M336.457 547.73C336.487 548.077 336.452 548.426 336.353 548.76C336.353 548.76 310.867 552.875 305.653 548.76C304.183 547.558 302.47 546.667 300.623 546.143C298.776 545.62 296.837 545.476 294.929 545.72C294.929 545.72 285.068 545.979 283.422 542.838C282.737 541.519 282.916 538.961 283.34 536.439C283.773 534.076 284.35 531.74 285.068 529.443L285.463 529.14L287.809 527.317L315.276 526.532H315.484C315.35 531.965 324.809 538.197 324.809 538.197C334.856 541.8 336.338 545.871 336.457 547.73Z" fill="white"/>
<path opacity="0.1" d="M336.457 547.73C336.483 548.077 336.445 548.426 336.345 548.76C336.345 548.76 310.867 552.875 305.653 548.76C304.184 547.559 302.472 546.669 300.627 546.145C298.781 545.621 296.843 545.477 294.936 545.72C294.936 545.72 285.068 545.979 283.429 542.838C282.744 541.512 282.916 538.961 283.34 536.439C287.138 536.807 293.134 537.722 295.487 539.905C299.047 543.227 305.08 546.541 308.781 546.801C311.679 546.981 329.009 547.514 336.457 547.73Z" fill="black"/>
<path opacity="0.1" d="M255.061 553.538C255.061 553.538 243.145 557.774 234.952 558.308C230.603 558.589 228.317 556.009 227.147 553.516C230.178 554.503 234.386 555.541 236.598 554.59C239.22 553.466 248.515 552.738 253.728 552.428C254.125 552.848 254.572 553.221 255.061 553.538Z" fill="black"/>
<path d="M272.742 212.107C262.911 208.411 250.265 196.197 253.423 190.491C254.124 189.051 254.541 187.496 254.652 185.908C254.855 183.752 254.885 181.584 254.741 179.423C254.52 175.885 254.079 172.362 253.423 168.874C253.423 168.874 284.115 169.544 282.327 173.918C281.806 175.201 281.724 177.427 281.865 179.92C282.007 182.413 282.379 185.231 282.767 187.616C283.303 190.887 283.839 193.38 283.839 193.38C283.839 193.38 281.962 195.924 280.86 196.061C279.758 196.197 286.848 217.374 272.742 212.107Z" fill="#CF6F80"/>
<path opacity="0.1" d="M247.621 535.135L247.39 535.38C238.215 524.644 227.117 538.024 227.117 538.024L226.954 537.743L227.52 531.662L244.925 527.288L247.39 534.58L247.621 535.135Z" fill="black"/>
<path opacity="0.1" d="M315.492 527.288C315.492 527.288 308.789 527.151 305.214 530.206C301.639 533.261 284.36 530.869 285.105 530.206C285.326 529.878 285.459 529.502 285.492 529.111L287.838 527.288L315.306 526.503C315.41 526.986 315.492 527.288 315.492 527.288Z" fill="black"/>
<path d="M259.038 442.977C258.539 444.171 258.16 445.409 257.906 446.673C257.285 450.136 257.112 453.661 257.392 457.165C257.668 462.208 257.392 496.009 257.392 496.009C257.392 496.009 251.501 505.023 248.217 508.201C244.932 511.379 254.92 517.085 254.92 517.085C256.409 525.299 247.383 534.58 247.383 534.58C238.207 523.844 227.11 537.232 227.11 537.232C227.11 537.232 221.077 527.144 219.573 523.541C218.068 519.939 225.464 517.446 228.063 515.983C230.663 514.52 227.937 505.895 227.937 505.895C227.937 505.895 225.74 498.337 223.133 491.441C220.526 484.545 226.008 450.219 226.008 450.219C226.008 450.219 226.291 444.123 226.968 441.997C227.31 440.463 227.378 438.884 227.17 437.328C227.125 436.802 227.073 436.363 227.035 436.067C226.998 435.772 226.968 435.635 226.968 435.635L227.073 435.462L230.797 428.746C230.797 428.746 260.826 438.747 259.038 442.977Z" fill="#174624"/>
<path d="M315.492 526.496C315.492 526.496 308.789 526.359 305.214 529.378C301.639 532.397 284.36 530.041 285.105 529.378C285.85 528.715 285.79 523.808 285.79 523.808C275.654 510.42 284.301 504.987 284.301 504.987C284.301 504.987 279.773 483.911 278.953 476.093C278.38 470.632 277.672 455.954 277.293 447.574C277.129 443.971 277.032 441.493 277.032 441.493L285.314 439.879L286.379 439.67L306.353 435.793C306.353 435.793 306.905 439.396 307.277 442.343C307.463 443.601 307.567 444.87 307.59 446.14C307.456 447.581 307.59 452.092 307.59 452.092L308.267 465.617C307.825 467.035 307.596 468.509 307.59 469.99C307.724 471.713 310.323 496.37 310.323 496.37C310.323 496.37 314.844 511.083 313.302 512.142C311.76 513.202 315.492 526.496 315.492 526.496Z" fill="#174624"/>
<path opacity="0.1" d="M282.327 173.918C281.806 175.201 281.724 177.427 281.865 179.92C277.754 182.315 273.028 183.54 268.23 183.453C263.432 183.367 258.757 181.972 254.741 179.43C254.52 175.889 254.08 172.364 253.423 168.874C253.423 168.874 284.115 169.53 282.327 173.918Z" fill="black"/>
<path d="M294.191 157.994C294.197 160.591 293.775 163.171 292.94 165.639C291.074 171.168 287.248 175.881 282.138 178.945C277.027 182.009 270.962 183.226 265.014 182.382C259.065 181.538 253.617 178.687 249.632 174.332C245.646 169.977 243.38 164.4 243.234 158.585C243.234 158.383 243.234 158.196 243.234 157.994C243.176 154.721 243.793 151.47 245.047 148.43C246.302 145.389 248.17 142.621 250.542 140.287C252.914 137.953 255.742 136.099 258.863 134.833C261.983 133.567 265.333 132.916 268.716 132.916C272.1 132.916 275.45 133.567 278.57 134.833C281.691 136.099 284.519 137.953 286.891 140.287C289.263 142.621 291.131 145.389 292.386 148.43C293.64 151.47 294.257 154.721 294.199 157.994H294.191Z" fill="#CF6F80"/>
<path opacity="0.1" d="M272.742 212.107C262.911 208.411 250.265 196.197 253.423 190.491C254.124 189.051 254.541 187.496 254.652 185.908L268.11 196.608L276.436 203.216L282.767 187.623C283.303 190.894 283.839 193.387 283.839 193.387C283.839 193.387 281.962 195.931 280.86 196.068C279.758 196.205 286.848 217.374 272.742 212.107Z" fill="black"/>
<path d="M307.545 259.396L296.307 442.055L281.649 442.984L243.696 337.071L249.922 211.329L251.233 184.762L268.11 198.172L276.443 204.779L282.96 188.733L295.078 198.95L307.545 259.396Z" fill="#174624"/>
<path opacity="0.1" d="M259.038 442.977C258.539 444.171 258.16 445.409 257.906 446.674C247.241 445.08 236.883 441.95 227.177 437.386L226.976 437.285L227.043 436.125L227.08 435.519L230.804 428.804C230.804 428.804 260.826 438.748 259.038 442.977Z" fill="black"/>
<path opacity="0.1" d="M285.485 446.702C282.759 447.151 280.009 447.454 277.248 447.61C277.084 444.008 276.987 441.529 276.987 441.529L285.269 439.915L285.485 446.702Z" fill="black"/>
<path opacity="0.1" d="M307.232 442.379C301.937 443.712 293.759 445.211 286.438 444.274L286.334 439.706L306.309 435.829C306.309 435.829 306.86 439.396 307.232 442.379Z" fill="black"/>
<path opacity="0.1" d="M286.304 445.11C255.769 450.154 227.803 435.692 227.803 435.692L228.071 430.793C228.071 430.793 228.763 375.246 226.842 370.987C224.92 366.729 223.423 345.134 224.511 341.82C225.598 338.505 220.541 288.802 220.541 288.802L219.722 268.627L189.737 256.875L203.143 229.84C204.954 226.049 206.511 222.15 207.806 218.167C210.137 211.149 220.958 204.253 220.958 204.253C220.958 204.253 232.055 197.365 236.442 197.624C240.829 197.883 246.578 191.528 246.578 191.528C250.823 181.059 254.666 185.8 254.666 185.8C254.666 186.297 254.666 185.8 254.458 187.349C252.968 198.842 278.544 235.157 278.909 235.799L281.344 293.197L283.809 365.835L286.304 445.11Z" fill="black"/>
<path d="M285.485 445.11C254.949 450.154 226.976 435.692 226.976 435.692L227.251 430.793C227.251 430.793 227.944 375.246 226.015 370.987C224.086 366.729 222.597 345.134 223.692 341.82C224.786 338.505 219.722 288.802 219.722 288.802L218.895 268.627L188.896 256.831L202.302 229.796C204.108 226.004 205.666 222.106 206.964 218.124C209.288 211.106 220.117 204.21 220.117 204.21C220.117 204.21 231.214 197.321 235.593 197.581C239.972 197.84 245.729 191.485 245.729 191.485C249.982 181.016 254.666 185.757 254.666 185.757C254.666 186.254 254.22 186.477 254.458 187.306C257.735 198.453 277.725 235.114 278.089 235.755L280.555 293.154L283.02 365.792L285.485 445.11Z" fill="white"/>
<path opacity="0.1" d="M277.255 237.391C273.971 236.065 256.573 216.848 256.573 216.848V212.475C255.94 211.033 252.179 211.913 249.125 212.921L250.436 186.355L251.926 187.551C255.188 198.69 276.875 236.75 277.255 237.391Z" fill="black"/>
<path d="M278.082 235.799C274.79 234.473 257.392 215.256 257.392 215.256V210.882C256.759 209.441 252.998 210.32 249.945 211.329L251.263 184.762L252.752 185.958C256.022 197.098 277.717 235.165 278.082 235.799Z" fill="white"/>
<path opacity="0.1" d="M227.803 331.638C228.212 331.638 249.036 329.52 249.036 329.52C249.036 329.52 261.645 353.507 260.818 359.343C259.992 365.18 258.495 370.346 253.423 369.431C248.351 368.516 226.127 370.152 226.127 370.152L227.803 331.638Z" fill="black"/>
<path d="M226.976 330.046C227.386 330.046 248.209 327.928 248.209 327.928C248.209 327.928 260.811 351.922 259.992 357.751C259.172 363.58 257.66 368.754 252.596 367.839C247.532 366.924 225.3 368.559 225.3 368.559L226.976 330.046Z" fill="white"/>
<path d="M242.668 318.784C242.668 318.784 261.779 328.72 262.189 331.754C262.598 334.787 252.462 330.428 250.272 329.902C248.831 329.566 247.364 329.344 245.886 329.239L231.281 329.621L242.668 318.784Z" fill="#CF6F80"/>
<path opacity="0.1" d="M271.923 238.63C273.033 238.63 273.934 237.759 273.934 236.685C273.934 235.61 273.033 234.739 271.923 234.739C270.812 234.739 269.912 235.61 269.912 236.685C269.912 237.759 270.812 238.63 271.923 238.63Z" fill="black"/>
<path d="M271.923 237.838C273.033 237.838 273.934 236.967 273.934 235.892C273.934 234.818 273.033 233.947 271.923 233.947C270.812 233.947 269.912 234.818 269.912 235.892C269.912 236.967 270.812 237.838 271.923 237.838Z" fill="#3F3D56"/>
<path opacity="0.1" d="M275.624 322.848C276.735 322.848 277.635 321.977 277.635 320.902C277.635 319.828 276.735 318.957 275.624 318.957C274.514 318.957 273.613 319.828 273.613 320.902C273.613 321.977 274.514 322.848 275.624 322.848Z" fill="black"/>
<path d="M275.624 322.048C276.735 322.048 277.635 321.177 277.635 320.102C277.635 319.028 276.735 318.157 275.624 318.157C274.514 318.157 273.613 319.028 273.613 320.102C273.613 321.177 274.514 322.048 275.624 322.048Z" fill="#3F3D56"/>
<path opacity="0.1" d="M273.926 280.739C275.037 280.739 275.937 279.868 275.937 278.794C275.937 277.719 275.037 276.848 273.926 276.848C272.816 276.848 271.915 277.719 271.915 278.794C271.915 279.868 272.816 280.739 273.926 280.739Z" fill="black"/>
<path d="M273.926 279.946C275.037 279.946 275.937 279.075 275.937 278.001C275.937 276.927 275.037 276.055 273.926 276.055C272.816 276.055 271.915 276.927 271.915 278.001C271.915 279.075 272.816 279.946 273.926 279.946Z" fill="#3F3D56"/>
<path d="M320.281 328.835C320.281 328.835 321.651 330.824 320.281 331.754C318.91 332.683 320.415 334.931 320.415 334.931C320.415 334.931 316.996 336.87 318.501 338.613C320.005 340.357 319.052 348.233 319.052 348.233L314.941 354.818C314.941 354.818 315.186 359.062 315.201 364.798C315.201 373.747 314.658 386.328 311.649 392.063L312.066 439.122C312.066 439.122 297.669 444.209 285.619 442.66L283.832 367.147C283.832 367.147 286.438 324.325 287.399 316.111C287.961 311.846 288.19 307.547 288.084 303.249C288.084 303.249 287.675 290.394 286.297 284.428C286.297 284.428 284.807 258.582 284.658 251.427C284.591 248.005 284.777 238.018 284.986 228.521C285.217 218.138 285.478 208.346 285.478 208.346L282.759 187.536C282.759 187.536 285.478 187.27 286.297 188.329C286.664 188.661 287.063 188.958 287.488 189.215C292.18 192.285 308.759 201.724 308.759 201.724C308.759 201.724 317.935 205.255 320.132 210.313C322.329 215.371 323.856 218.959 324.921 220.401C325.986 221.842 326.566 228.615 326.566 228.615C326.566 228.615 329.724 241.08 332.189 243.191C334.655 245.303 336.457 258.734 336.457 258.734L314.673 275.306C314.673 275.306 312.758 302.874 312.349 303.941C311.939 305.007 320.281 328.835 320.281 328.835Z" fill="white"/>
<path d="M321.107 328.835C321.107 328.835 322.47 330.824 321.107 331.754C319.744 332.683 321.234 334.931 321.234 334.931C321.234 334.931 317.838 336.891 319.327 338.635C320.817 340.379 319.878 348.254 319.878 348.254L315.767 354.84C315.767 354.84 316.013 359.084 316.035 364.82C316.035 373.769 315.492 386.349 312.483 392.085L312.893 439.144C312.893 439.144 298.474 444.231 286.438 442.682L284.658 367.169C284.658 367.169 287.265 324.346 288.226 316.132C288.789 311.868 289.015 307.568 288.904 303.271C288.904 303.271 288.494 290.416 287.124 284.45C287.124 284.45 285.634 258.604 285.478 251.449C285.411 248.026 285.604 238.039 285.805 228.543C286.036 218.16 286.297 208.367 286.297 208.367L282.707 187.277C282.707 187.277 286.297 187.277 287.124 188.351C287.487 188.686 287.887 188.983 288.315 189.237C293.007 192.306 309.593 201.746 309.593 201.746C309.593 201.746 318.761 205.276 320.958 210.335C323.155 215.393 324.682 218.981 325.755 220.422C326.827 221.863 327.393 228.636 327.393 228.636C327.393 228.636 330.551 241.102 333.016 243.213C335.481 245.324 337.261 258.726 337.261 258.726L315.477 275.299C315.477 275.299 313.563 302.867 313.146 303.933C312.729 305 321.107 328.835 321.107 328.835Z" fill="white"/>
<path opacity="0.1" d="M295.018 214.485L296.984 220.033L286.632 230.121C286.863 219.745 287.123 209.945 287.123 209.945L283.534 188.855C283.534 188.855 287.123 188.855 287.95 189.929C288.313 190.263 288.712 190.558 289.142 190.808L297.945 215.378L295.018 214.485Z" fill="black"/>
<path d="M294.191 212.892L296.165 218.441L285.813 228.528C286.044 218.145 286.304 208.353 286.304 208.353L282.707 187.263C282.707 187.263 286.304 187.263 287.124 188.336C287.489 188.67 287.888 188.967 288.315 189.223L297.126 213.786L294.191 212.892Z" fill="white"/>
<path opacity="0.1" d="M294.191 157.994C294.197 160.591 293.775 163.171 292.94 165.639C292.799 165.66 292.656 165.654 292.518 165.621C292.379 165.587 292.25 165.527 292.136 165.445C291.942 158.96 288.643 152.871 284.584 147.69C283.444 146.126 282.063 144.741 280.488 143.583C278.895 142.426 276.915 141.884 274.932 142.063C272.697 142.358 270.724 143.828 268.467 144.015C265.488 144.253 262.822 142.257 259.865 142.156C258.663 142.168 257.477 142.426 256.387 142.916C255.296 143.406 254.327 144.114 253.542 144.995C251.989 146.773 250.834 148.844 250.153 151.077C248.982 154.462 248.344 157.999 248.261 161.568C248.224 163.585 248.023 166.115 246.087 166.85C246.232 165.366 246.058 163.869 245.575 162.454C245.092 161.039 244.31 159.736 243.279 158.628L243.234 158.585C243.234 158.383 243.234 158.196 243.234 157.994C243.176 154.721 243.793 151.47 245.047 148.43C246.302 145.389 248.17 142.621 250.542 140.287C252.914 137.953 255.742 136.099 258.863 134.833C261.983 133.567 265.333 132.916 268.716 132.916C272.1 132.916 275.45 133.567 278.57 134.833C281.691 136.099 284.519 137.953 286.891 140.287C289.263 142.621 291.131 145.389 292.386 148.43C293.64 151.47 294.257 154.721 294.199 157.994H294.191Z" fill="black"/>
<path d="M279.266 118.847C275.396 117.086 270.994 116.752 266.888 117.91C264.825 118.501 262.881 119.459 260.788 119.942C256.32 120.987 251.106 119.856 247.271 122.385C245.141 123.826 243.86 126.103 242.668 128.315L239.689 133.805C238.066 136.81 236.427 139.865 235.749 143.172C235.072 146.48 235.481 150.183 237.648 152.842C239.227 154.78 241.559 155.998 243.271 157.821C244.298 158.93 245.076 160.232 245.558 161.645C246.04 163.059 246.215 164.553 246.072 166.035C248.016 165.315 248.202 162.778 248.247 160.761C248.33 157.192 248.967 153.655 250.138 150.27C250.818 148.037 251.972 145.965 253.527 144.188C254.312 143.308 255.282 142.6 256.373 142.11C257.463 141.621 258.648 141.361 259.85 141.349C262.829 141.45 265.503 143.439 268.452 143.201C270.686 143.021 272.668 141.544 274.917 141.256C276.9 141.074 278.882 141.617 280.473 142.776C282.047 143.932 283.427 145.318 284.562 146.883C288.628 152.064 291.927 158.138 292.121 164.637C292.962 165.236 294.176 164.457 294.594 163.535C295.011 162.613 295.025 161.532 295.554 160.653C296.165 159.637 297.334 159.096 298.25 158.333C300.574 156.394 301.155 153.13 301.066 150.169C300.976 147.208 300.38 144.203 300.961 141.292C301.311 139.505 302.101 137.833 302.533 136.068C302.965 134.303 303.017 132.321 301.997 130.801C300.507 128.567 297.372 128.127 294.638 127.918C291.533 127.659 288.755 127.991 286.773 125.461C285.844 124.142 284.797 122.902 283.645 121.758C283.251 121.383 279.266 119.005 279.266 118.847Z" fill="#512E4E"/>
<path opacity="0.1" d="M198.317 270.796L190.534 256.875L188.069 278.354C188.069 278.354 189.44 287.894 189.164 289.357C188.888 290.819 194.78 303.933 194.78 303.933C194.78 303.933 214.24 337.468 222.187 339.197L249.036 320.636L241.916 311.888C241.916 311.888 239.451 310.959 238.833 311.888C238.833 311.888 225.613 289.883 224.243 288.29C222.872 286.698 223.14 283.52 223.14 283.52C223.14 283.52 221.085 281.402 221.77 279.413C222.455 277.425 217.8 270.529 217.8 270.529L222.046 266.688L198.317 270.796Z" fill="black"/>
<path d="M190.944 255.289L188.888 256.875L186.423 278.354C186.423 278.354 187.794 287.894 187.518 289.357C187.242 290.819 193.141 303.933 193.141 303.933C193.141 303.933 212.594 337.468 220.541 339.197L247.398 320.636L240.27 311.888C240.27 311.888 237.805 310.959 237.187 311.888C237.187 311.888 223.967 289.883 222.597 288.29C221.226 286.698 221.502 283.52 221.502 283.52C221.502 283.52 219.446 281.402 220.131 279.413C220.817 277.425 216.154 270.529 216.154 270.529L220.4 266.688L190.944 255.289Z" fill="white"/>
<path opacity="0.1" d="M318.501 339.435C319.99 341.186 319.052 349.047 319.052 349.047L314.941 355.633C314.941 355.633 315.186 359.884 315.201 365.612L308.29 367.702C307.665 367.89 307.003 367.932 306.358 367.823C305.714 367.713 305.106 367.457 304.585 367.074C304.063 366.691 303.644 366.193 303.363 365.622C303.081 365.05 302.944 364.422 302.965 363.789L304.156 326.602L320.281 332.568C318.91 333.49 320.415 335.753 320.415 335.753C320.415 335.753 316.996 337.684 318.501 339.435Z" fill="black"/>
<path d="M319.327 338.635C320.817 340.386 319.878 348.254 319.878 348.254L315.767 354.84C315.767 354.84 316.013 359.084 316.035 364.82L308.997 366.945C308.386 367.129 307.737 367.169 307.107 367.061C306.476 366.954 305.88 366.702 305.37 366.327C304.86 365.952 304.45 365.465 304.174 364.906C303.898 364.346 303.765 363.731 303.784 363.112L304.983 325.809L321.115 331.775C319.737 332.698 321.241 334.953 321.241 334.953C321.241 334.953 317.838 336.891 319.327 338.635Z" fill="white"/>
<path d="M324.667 320.909C324.667 320.909 323.573 327.675 320.832 328.072C318.091 328.468 316.862 339.017 314.129 338.642C311.396 338.267 313.205 328.835 313.302 327.005C313.399 325.175 310.323 317.595 312.624 315.873C314.926 314.151 322.21 315.873 322.21 315.873L324.667 320.909Z" fill="#CF6F80"/>
<path opacity="0.1" d="M330.499 268.807L335.668 258.719C335.668 258.719 337.723 266.407 337.723 270.514C337.723 274.622 340.598 275.025 340.598 275.025C340.598 275.025 343.748 278.628 342.087 281.251C340.427 283.873 339.756 290.402 339.756 290.402C339.756 290.402 340.3 302.86 337.835 304.582C335.37 306.304 334.856 310.418 334.856 310.418C334.856 310.418 330.328 318.236 330.469 320.095C330.611 321.954 324.168 334.542 324.168 334.542C324.168 334.542 327.319 318.899 308.96 312.14C308.96 312.14 308.819 306.83 310.189 305.374C311.559 303.919 313.697 303.256 312.356 295.899C311.016 288.543 311.969 279.752 311.969 277.987C311.969 276.221 316.08 265.211 316.08 265.211L330.499 268.807Z" fill="black"/>
<path d="M332.733 257.278L337.246 258.719C337.246 258.719 339.309 266.407 339.309 270.514C339.309 274.622 342.184 275.025 342.184 275.025C342.184 275.025 345.335 278.628 343.674 281.251C342.013 283.873 341.35 290.402 341.35 290.402C341.35 290.402 341.894 302.86 339.429 304.582C336.963 306.304 336.412 310.418 336.412 310.418C336.412 310.418 331.892 318.236 332.033 320.095C332.175 321.954 325.725 334.542 325.725 334.542C325.725 334.542 328.883 318.899 310.517 312.14C310.517 312.14 310.383 306.83 311.753 305.375C313.123 303.919 315.261 303.256 313.92 295.899C312.58 288.543 313.533 279.752 313.533 277.987C313.533 276.221 317.644 265.211 317.644 265.211L332.733 257.278Z" fill="white"/>
<path opacity="0.1" d="M233.046 518.743C233.046 518.743 240.24 514.369 244.962 517.546C249.684 520.724 233.046 518.743 233.046 518.743Z" fill="black"/>
<path opacity="0.1" d="M288.948 505.218C288.948 505.218 295.316 504.425 300.663 509.995C306.011 515.565 288.948 505.218 288.948 505.218Z" fill="black"/>
<g opacity="0.1">
<path d="M298.265 156.755C297.349 157.519 296.172 158.066 295.562 159.082C295.04 159.954 295.026 161.028 294.608 161.964C294.191 162.901 292.977 163.665 292.136 163.074C291.942 156.589 288.635 150.5 284.576 145.312C283.442 143.747 282.062 142.361 280.488 141.205C278.894 140.046 276.91 139.504 274.924 139.685C272.69 139.98 270.724 141.45 268.467 141.63C265.488 141.875 262.814 139.88 259.858 139.779C258.656 139.79 257.471 140.05 256.382 140.541C255.292 141.032 254.324 141.742 253.542 142.625C251.987 144.399 250.833 146.468 250.153 148.699C248.983 152.085 248.345 155.621 248.261 159.19C248.217 161.2 248.023 163.708 246.102 164.457C246.146 164.99 246.146 165.525 246.102 166.057C248.038 165.336 248.232 162.8 248.276 160.783C248.359 157.214 248.997 153.677 250.168 150.291C250.848 148.058 252.002 145.987 253.557 144.21C254.341 143.33 255.309 142.622 256.398 142.132C257.487 141.643 258.672 141.383 259.872 141.371C262.852 141.472 265.533 143.461 268.482 143.223C270.716 143.043 272.697 141.566 274.939 141.277C276.925 141.096 278.908 141.638 280.503 142.798C282.077 143.954 283.456 145.339 284.591 146.905C288.65 152.086 291.957 158.16 292.151 164.659C292.992 165.257 294.206 164.479 294.623 163.557C295.04 162.634 295.055 161.554 295.577 160.674C296.187 159.659 297.364 159.118 298.28 158.354C300.604 156.416 301.185 153.152 301.095 150.191C301.095 150.097 301.095 150.003 301.095 149.917C300.954 152.482 300.246 155.097 298.265 156.755Z" fill="black"/>
<path d="M243.286 156.243C241.573 154.42 239.235 153.202 237.663 151.271C236.34 149.562 235.584 147.504 235.496 145.37C235.262 148.037 236.031 150.696 237.663 152.857C239.235 154.795 241.573 156.013 243.286 157.836C244.931 159.619 245.918 161.879 246.094 164.263C246.208 162.812 246.018 161.354 245.536 159.976C245.053 158.598 244.288 157.328 243.286 156.243Z" fill="black"/>
<path d="M302.548 134.49C302.108 136.255 301.326 137.934 300.969 139.714C300.757 140.903 300.68 142.111 300.738 143.317C300.763 142.63 300.84 141.946 300.969 141.27C301.326 139.483 302.108 137.812 302.548 136.046C302.804 135.073 302.887 134.064 302.793 133.063C302.747 133.544 302.665 134.021 302.548 134.49Z" fill="black"/>
</g>
<path opacity="0.1" d="M98.8532 548.04C138.933 548.04 171.424 542.991 171.424 536.763C171.424 530.536 138.933 525.487 98.8532 525.487C58.7737 525.487 26.2829 530.536 26.2829 536.763C26.2829 542.991 58.7737 548.04 98.8532 548.04Z" fill="#174624"/>
<path d="M101.192 320.744H96.5221V422.463H101.192V320.744Z" fill="#535461"/>
<path d="M130.536 422.153L130.245 426.736L129.828 433.221L129.657 435.916L129.247 442.401L129.069 445.096L128.651 451.58L123.945 525.127C123.74 528.291 122.297 531.261 119.909 533.432C117.52 535.603 114.367 536.813 111.09 536.814H86.6167C83.3403 536.813 80.1876 535.603 77.8007 533.432C75.4138 531.26 73.9721 528.29 73.7694 525.127L69.0848 451.53L68.6677 445.045L68.4964 442.35L68.0793 435.865L67.9081 433.17L67.491 426.686L67.1931 422.103C67.1413 421.221 67.2764 420.338 67.59 419.508C67.9036 418.679 68.3891 417.92 69.0168 417.278C69.6445 416.636 70.401 416.125 71.24 415.777C72.0791 415.428 72.9829 415.249 73.896 415.251H123.952C124.862 415.258 125.76 415.446 126.592 415.803C127.424 416.159 128.171 416.677 128.788 417.324C129.405 417.97 129.878 418.733 130.179 419.563C130.479 420.394 130.601 421.275 130.536 422.153Z" fill="#3F3D56"/>
<path d="M130.245 426.736L129.828 433.199H67.8783L67.4612 426.736H130.245Z" fill="#9D9CB5"/>
<path d="M129.657 435.894L129.247 442.365H68.4666L68.0496 435.894H129.657Z" fill="#9D9CB5"/>
<path d="M129.069 445.067L128.659 451.53H69.055L68.6379 445.067H129.069Z" fill="#9D9CB5"/>
<path d="M60.3338 358.868C87.5253 377.905 98.8756 407.678 98.8756 407.678C98.8756 407.678 66.1057 406.59 38.9067 387.553C11.7078 368.516 0.379822 338.75 0.379822 338.75C0.379822 338.75 33.1348 339.831 60.3338 358.868Z" fill="#174624"/>
<path d="M0.357483 338.75C0.357483 338.75 34.3786 357.016 45.2894 372.14C56.2003 387.265 98.8756 407.678 98.8756 407.678" stroke="#535461" stroke-width="2" stroke-miterlimit="10"/>
<path d="M77.888 320.52C92.6866 330.875 98.8756 347.08 98.8756 347.08C98.8756 347.08 81.0384 346.489 66.2323 336.135C51.4263 325.78 45.2522 309.568 45.2522 309.568C45.2522 309.568 63.082 310.159 77.888 320.52Z" fill="#174624"/>
<path d="M45.2522 309.568C45.2522 309.568 63.7672 319.512 69.703 327.74C75.6388 335.969 98.8756 347.08 98.8756 347.08" stroke="#535461" stroke-width="2" stroke-miterlimit="10"/>
<path d="M120.362 346.258C103.359 364.337 99.7618 387.963 99.7618 387.963C99.7618 387.963 123.736 382.271 140.724 364.185C157.712 346.1 161.324 322.48 161.324 322.48C161.324 322.48 137.365 328.18 120.362 346.258Z" fill="#174624"/>
<path d="M161.339 322.487C161.339 322.487 139.19 341.02 133.559 353.788C127.929 366.556 99.7618 387.963 99.7618 387.963" stroke="#535461" stroke-width="2" stroke-miterlimit="10"/>
<path d="M744.524 339.896C744.524 339.896 732.227 280.71 736.934 273.346C736.934 273.346 737.106 266.501 736.823 257.775C736.823 257.444 736.823 257.112 736.823 256.774C737.651 257.308 738.514 257.789 739.407 258.215C743.744 260.37 748.723 260.992 753.483 259.973L749.759 255.959C748.866 255.001 747.935 253.964 747.741 252.695C747.547 251.427 748.084 250.296 748.545 249.165C752.083 240.518 752.269 229.645 745.455 223.045C739.698 217.497 738.297 210.335 732.049 205.269C727.483 201.558 724.973 196.118 722.605 190.858C720.602 186.412 718.583 181.931 717.436 177.218C716.543 173.536 716.185 169.725 714.956 166.129C713.727 162.534 711.426 159.039 707.829 157.432C706.548 156.863 705.125 156.539 703.956 155.782C702.422 154.78 701.498 153.152 700.389 151.725C694.751 144.52 675.871 148.764 666.934 151.689C664.504 152.426 662.254 153.632 660.32 155.234L660.402 155.105C660.469 154.997 660.551 154.889 660.625 154.78C659.647 155.546 658.802 156.458 658.123 157.482C656.82 159.478 656.276 161.806 655.189 163.967C653.878 166.525 646.586 173.666 649.722 176.541C649.942 176.734 650.193 176.89 650.467 177.002C651.644 177.476 652.94 177.601 654.191 177.362L654.056 177.672C652.986 180.209 652.437 182.923 652.44 185.663C652.44 197.502 662.532 207.099 674.992 207.099C677.334 207.101 679.663 206.754 681.896 206.069C681.948 206.343 681.993 206.617 682.045 206.89C682.045 206.998 682.082 207.106 682.097 207.215L681.702 207.748C681.683 207.715 681.66 207.684 681.635 207.654L669.942 223.463C668.155 224.681 657.862 231.886 657.281 237.29C656.671 243.206 656.06 250.13 656.06 250.13L655.978 251.615C655.467 252.028 654.869 252.329 654.226 252.497C653.584 252.665 652.911 252.695 652.254 252.587C648.605 252.011 648.605 265.557 648.605 265.557C648.605 265.557 646.177 267.719 644.509 265.845C642.84 263.972 638.431 270.32 638.431 270.32L610.8 271.473L610.167 271.509L608.678 267.049C608.517 266.578 608.172 266.188 607.716 265.963C607.26 265.737 606.73 265.695 606.242 265.845C606.127 265.882 606.015 265.928 605.907 265.982L605.803 266.04L605.609 266.17L605.512 266.256C605.459 266.303 605.409 266.354 605.363 266.407L605.274 266.508L605.229 266.552C605.057 266.782 604.944 267.047 604.897 267.328C604.85 267.608 604.872 267.895 604.961 268.166L606.242 271.992C600.91 273.029 595.458 275.955 599.904 284.01L577.368 279.982L584.659 285.905L622.3 293.421C621.801 294.285 622.128 295.539 623.685 297.304C630.388 304.921 642.602 306.989 647.517 307.522C648.816 310.331 650.437 312.99 652.351 315.448L651.926 323.035C651.926 323.035 639.481 380.866 637.202 383.799C638.353 382.538 639.406 381.196 640.353 379.785C636.741 391.667 631.691 407.93 630.365 410.365C628.235 414.256 626.262 430 628.69 431.009C629.434 431.319 631.564 431.167 634.603 430.944V432.248L634.469 481.67C634.469 481.67 635.08 511.984 633.404 514.873C631.728 517.763 631.281 523.822 631.281 523.822C631.281 523.822 624.578 535.776 619.268 540.582C619.232 540.62 619.192 540.653 619.149 540.683L618.985 539.559C618.985 539.559 612.603 547.355 598.482 546.916C598.482 546.916 589.984 552.262 602.585 552.551C615.187 552.839 631.281 552.118 631.281 552.118C631.281 552.118 642.52 535.546 651.934 537.707V550.266H654.816V537.506C656.153 536.654 657.297 535.549 658.179 534.257C659.061 532.965 659.663 531.514 659.948 529.99C660.194 528.42 660.014 526.814 659.423 525.332C658.833 523.85 657.853 522.542 656.581 521.538C656.01 521.038 655.551 520.43 655.235 519.75C654.918 519.071 654.75 518.335 654.742 517.59L654.637 517.676C654.637 517.424 654.57 517.165 654.541 516.898C653.714 510.413 652.679 497.033 656.335 487.132C661.348 473.557 662.867 454.65 659.218 443.395C658.04 439.797 657.073 436.138 656.321 432.436C656.231 431.967 656.149 431.52 656.075 431.103C658.569 431.429 661.04 431.91 663.47 432.544C671.924 434.799 690.416 435.217 706.205 435.094C706.242 435.512 706.287 435.952 706.339 436.391C706.621 439.447 707.209 442.468 708.097 445.413C710.078 451.177 710.987 476.591 710.987 476.591C710.987 476.591 713.541 497.486 712.148 505.989C711.404 510.716 710.659 515.464 710.234 520.234V520.328C710.234 520.328 706.049 531.857 702.988 538.118C702.913 538.277 702.831 538.435 702.757 538.586C701.941 538.658 701.138 538.83 700.366 539.098C700.366 539.098 696.263 547.024 692.174 548.335C688.085 549.647 689.44 553.963 698.698 552.378C707.955 550.792 721.935 549.495 721.935 549.495L722.538 541.411L725.383 537.967L724.638 546.03L727.67 545.453L727.267 535.647L731.922 530.012C731.922 530.012 737.545 525.17 729.189 515.644V515.853C729.099 515.716 729.017 515.572 728.921 515.435V515.392C727.535 513.317 726.433 509.448 728.451 502.581C732.101 490.173 734.223 478.911 734.223 478.911C734.223 478.911 742.371 448.742 732.578 434.467H733.009C732.006 432.459 731.296 430.325 730.902 428.127C730.852 427.867 730.807 427.601 730.768 427.327C738.014 426.923 745.127 425.655 750.929 422.917C750.906 422.888 747.413 351.295 744.524 339.896ZM652.522 289.962V290.106L651.033 290.178L652.522 289.962ZM647.413 290.647C647.168 290.699 646.939 290.805 646.743 290.956C646.102 291.833 645.7 292.851 645.574 293.918L643.25 293.413C643.25 293.413 641.619 293.075 639.273 292.693L638.163 291.612C641.217 291.367 644.389 291.007 647.413 290.647Z" fill="url(#paint1_linear_11_27)"/>
<path d="M724.296 535.747L723.409 545.958L726.381 545.381L725.934 534.306L724.296 535.747Z" fill="#1D2366"/>
<path d="M656.499 487.269C652.917 497.141 653.93 510.463 654.734 516.934C655.032 519.326 655.308 520.782 655.308 520.782C655.308 520.782 649.953 532.584 649.506 533.031C649.059 533.478 633.747 542.521 633.747 542.521L623.044 548.566C623.044 548.566 612.186 543.962 617.392 542.376C618.455 541.963 619.413 541.332 620.199 540.525C625.413 535.733 631.959 523.822 631.959 523.822C631.959 523.822 632.406 517.777 634.045 514.902C635.683 512.027 635.087 481.815 635.087 481.815L635.214 432.565V426.145L655.583 426.289C655.712 428.469 656.005 430.636 656.462 432.774C657.193 436.464 658.141 440.111 659.3 443.698C662.889 454.931 661.4 473.744 656.499 487.269Z" fill="#FFB0B1"/>
<path opacity="0.1" d="M655.308 520.782C655.308 520.782 649.953 532.584 649.506 533.031C649.059 533.478 633.747 542.521 633.747 542.521L623.044 548.566C623.044 548.566 612.186 543.962 617.392 542.376C618.455 541.963 619.413 541.332 620.199 540.525L620.661 543.673L624.228 543.529L654.764 516.948C655.032 519.326 655.308 520.782 655.308 520.782Z" fill="black"/>
<path d="M654.935 517.618L624.228 544.38L620.661 544.524L619.916 539.48C619.916 539.48 613.675 547.247 599.807 546.815C599.807 546.815 591.481 552.14 603.822 552.428C616.163 552.716 631.922 551.996 631.922 551.996C631.922 551.996 642.93 535.423 652.142 537.585V550.101H654.972V537.469C656.288 536.613 657.411 535.507 658.274 534.219C659.137 532.931 659.721 531.488 659.992 529.976C660.237 528.418 660.064 526.826 659.489 525.352C658.913 523.878 657.956 522.572 656.708 521.56C656.15 521.054 655.706 520.444 655.401 519.766C655.096 519.088 654.938 518.358 654.935 517.618Z" fill="#1D2366"/>
<path d="M727.126 502.66C725.145 509.505 726.225 513.36 727.58 515.428V515.471C729.319 518.025 730.528 520.88 731.14 523.88L731.259 524.529L717.287 544.235L709.706 547.118C709.706 547.118 697.514 543.09 699.741 541.937C700.299 541.656 701.171 540.157 702.169 538.089C705.148 531.856 709.259 520.357 709.259 520.357V520.263C709.691 515.514 710.376 510.78 711.136 506.068C712.499 497.587 709.996 476.771 709.996 476.771C709.996 476.771 709.102 451.458 707.166 445.701C706.292 442.774 705.711 439.772 705.431 436.737C705.029 433.134 704.939 430.166 704.939 430.166C704.939 430.166 712.968 419.358 727.684 431.031C728.861 431.961 729.897 433.048 730.76 434.259C740.926 448.252 732.741 479.077 732.741 479.077C732.741 479.077 730.693 490.288 727.126 502.66Z" fill="#FFB0B1"/>
<path opacity="0.1" d="M731.282 524.529L717.31 544.235L709.728 547.118C709.728 547.118 697.536 543.09 699.763 541.937C700.322 541.656 701.193 540.157 702.191 538.089C707.352 538.046 710.026 542.802 710.026 542.802L716.565 541.793C716.565 541.793 725.189 525.393 727.126 524.392C729.062 523.39 727.424 516.905 727.424 516.905V515.255C727.476 515.313 727.521 515.378 727.58 515.435V515.478C729.319 518.032 730.528 520.888 731.14 523.887L731.282 524.529Z" fill="black"/>
<path d="M710.473 543.227C710.473 543.227 706.749 536.612 699.614 539.055C699.614 539.055 695.6 546.981 691.586 548.263C687.571 549.546 688.912 553.869 697.983 552.291C707.054 550.713 720.728 549.409 720.728 549.409L721.324 541.346L730.544 529.983C730.544 529.983 736.041 525.163 727.863 515.673V517.323C727.863 517.323 729.502 523.808 727.565 524.809C725.629 525.811 717.034 542.218 717.034 542.218L710.473 543.227Z" fill="#1D2366"/>
<path opacity="0.1" d="M655.606 426.275C655.734 428.454 656.028 430.622 656.484 432.76C648.098 431.571 640.316 432.162 635.214 432.551V426.131L655.606 426.275Z" fill="black"/>
<path opacity="0.1" d="M731.587 436.053C731.587 436.053 719.671 436.615 705.461 436.73C705.058 433.127 704.969 430.159 704.969 430.159C704.969 430.159 712.998 419.35 727.714 431.023C728.891 431.954 729.927 433.041 730.79 434.251C731.021 434.866 731.287 435.467 731.587 436.053Z" fill="black"/>
<path d="M731.587 434.756C731.587 434.756 679.394 437.198 663.485 432.882C647.577 428.566 631.81 432.306 629.434 431.304C627.059 430.303 628.988 414.616 631.073 410.733C633.158 406.849 644.598 367.572 644.598 367.572L655.606 312.047L667.202 308.956L668.021 308.732L688.227 303.343L703.033 299.387C703.033 299.387 732.473 410.589 729.948 418.788C729.032 421.928 728.884 425.232 729.517 428.437C729.902 430.625 730.599 432.752 731.587 434.756Z" fill="#1D2366"/>
<path d="M617.235 274.074C617.235 274.074 606.808 284.882 614.703 290.906C622.597 296.93 627.788 291.482 627.788 291.482L617.235 274.074Z" fill="#C7DAF5"/>
<path opacity="0.1" d="M617.235 274.074C617.235 274.074 606.808 284.882 614.703 290.906C622.597 296.93 627.788 291.482 627.788 291.482L617.235 274.074Z" fill="black"/>
<path d="M701.476 203.014C701.476 203.014 700.255 204.138 698.415 205.795C695.793 208.166 691.913 211.632 688.472 214.535C683.706 218.549 679.773 221.496 681.181 218.981C682.589 216.466 682.321 212.085 681.62 207.986C681.568 207.712 681.524 207.438 681.472 207.171C680.892 204.16 680.123 201.186 679.17 198.265C679.17 198.265 686.871 188.639 691.131 184.842C692.718 183.401 693.827 182.81 693.894 183.811C693.969 185.159 695.011 188.134 696.307 191.29C696.345 191.391 696.382 191.485 696.427 191.586C697.29 193.748 698.266 195.967 699.123 197.883C700.433 200.823 701.476 203.014 701.476 203.014Z" fill="#FFB0B1"/>
<path opacity="0.1" d="M696.427 191.586C695.703 195.352 693.947 198.86 691.342 201.745C688.738 204.63 685.38 206.785 681.62 207.986C681.028 204.696 680.21 201.449 679.17 198.265C679.17 198.265 693.671 180.144 693.894 183.811C693.946 185.202 695.078 188.286 696.427 191.586Z" fill="black"/>
<path opacity="0.1" d="M680.176 212.828L682.052 210.27C682.052 210.27 683.296 217.605 687.869 214.37C692.442 211.134 692.665 238.717 692.665 238.717L687.757 309.712L652.291 307.659L653.297 273.353L657.311 256.06L667.239 230.92L673.145 222.613L680.176 212.828Z" fill="black"/>
<path d="M692.665 239.156L688.197 303.35L687.728 310.152L667.954 309.006L667.209 308.963L652.314 308.098L653.319 273.786L657.334 256.493L667.261 231.353L673.167 223.045L680.198 213.224L682.075 210.673C682.075 210.673 683.318 218.008 687.891 214.773L687.988 214.708C692.457 211.97 692.665 239.156 692.665 239.156Z" fill="#1D2366"/>
<path d="M657.833 250.483C657.833 250.483 656.053 254.086 652.478 253.502C648.903 252.919 648.91 266.472 648.91 266.472C648.91 266.472 646.534 268.634 644.896 266.76C643.257 264.887 638.938 271.221 638.938 271.221L611.873 272.374C611.873 272.374 623.916 277.698 621.555 293.81C621.555 293.81 662.443 291.36 663.783 287.62C665.124 283.881 657.833 250.483 657.833 250.483Z" fill="white"/>
<path opacity="0.03" d="M657.833 250.483C657.833 250.483 656.053 254.086 652.478 253.502C648.903 252.919 648.91 266.472 648.91 266.472C648.91 266.472 646.534 268.634 644.896 266.76C643.257 264.887 638.938 271.221 638.938 271.221L611.873 272.374C611.873 272.374 623.916 277.698 621.555 293.81C621.555 293.81 662.443 291.36 663.783 287.62C665.124 283.881 657.833 250.483 657.833 250.483Z" fill="black"/>
<path d="M579.177 280.84L586.312 286.734L645.045 298.673L637.761 291.482L579.177 280.84Z" fill="white"/>
<path d="M680.287 215.097C679.312 216.538 676.519 223.917 674.188 230.358C672.244 235.727 670.62 240.446 670.62 240.446C670.62 240.446 666.829 264.325 664.893 268.641C662.956 272.957 664.007 289.789 664.007 289.789L656.79 331.357C656.79 331.357 653.52 352.794 648.471 365.598C643.488 378.2 637.94 384.109 637.768 384.296C640.003 381.37 652.18 323.77 652.18 323.77L656.201 251.125C656.201 251.125 656.79 244.222 657.386 238.321C657.981 232.419 670.047 224.364 670.047 224.364L681.68 208.36C682.849 209.873 682.067 212.511 680.287 215.097Z" fill="white"/>
<path d="M649.953 308.458C649.953 308.458 632.823 307.738 624.526 298.097C616.23 288.456 643.704 294.249 643.704 294.249L650.847 295.834L649.953 308.458Z" fill="#FFB0B1"/>
<path opacity="0.1" d="M729.948 418.796C729.032 421.935 728.884 425.239 729.517 428.444C710.83 429.726 690.841 424.841 690.841 424.841C687.117 428.156 677.308 433.041 677.308 433.041L671.961 368.912C668.542 360.266 667.202 314.965 667.202 314.965C667.202 314.965 667.507 312.594 667.946 309.042C667.946 308.956 667.946 308.862 667.984 308.775C669.317 298.854 671.961 280.227 673.257 277.713C675.044 274.254 667.76 265.053 667.76 265.053L671.074 237.708L671.477 234.408C678.463 231.389 683.817 221.748 683.817 221.748L687.929 214.78C692.397 212.006 692.628 239.192 692.628 239.192L688.159 303.386L702.965 299.43C702.965 299.43 732.473 410.596 729.948 418.796Z" fill="black"/>
<path d="M749.126 423.227C728.757 433.012 691.734 423.948 691.734 423.948C688.011 427.262 678.202 432.147 678.202 432.147L672.847 368.019C669.436 359.372 668.095 314.072 668.095 314.072C668.095 314.072 672.4 280.271 674.188 276.819C674.709 275.811 674.456 274.312 673.838 272.698C670.799 265.016 669.681 256.747 670.576 248.567L672.005 236.815L672.4 233.522C679.394 230.495 684.749 220.854 684.749 220.854L688.472 214.543L695.324 202.913L698.571 197.408L699.123 197.891L703.33 201.58C703.33 201.58 705.118 203.021 707.799 205.183C713.631 209.938 723.707 218.311 728.906 223.434C733.479 227.945 734.924 245.49 735.341 258.698C735.616 267.395 735.452 274.211 735.452 274.211C730.842 281.553 742.9 340.501 742.9 340.501C745.708 351.893 749.126 423.227 749.126 423.227Z" fill="white"/>
<path opacity="0.03" d="M710.026 220.71C710.026 220.71 696.047 246.455 697.67 256.24C699.294 266.025 703.911 277.1 701.685 279.687C700.919 280.667 699.93 281.463 698.795 282.011C697.659 282.56 696.407 282.847 695.138 282.85C692.904 282.994 686.945 287.022 686.945 287.455C686.945 287.887 681.442 287.887 676.519 289.904C671.596 291.922 664.327 293.068 664.327 293.068C664.327 293.068 650.176 292.635 648.858 293.932C647.54 295.229 646.184 302.989 649.007 309.179C651.83 315.368 654.965 319.987 657.333 320.83C659.702 321.673 674.731 316.802 686.923 315.649C699.115 314.497 712.35 305.151 712.35 305.151C712.35 305.151 726.925 300.107 729.479 291.626C732.034 283.146 726.359 236.534 726.359 236.534C726.359 236.534 722.069 214.809 710.026 220.71Z" fill="black"/>
<path opacity="0.03" d="M708.238 218.549C708.238 218.549 694.259 244.301 695.898 254.079C697.536 263.857 702.139 274.939 699.904 277.533C699.142 278.514 698.155 279.31 697.02 279.859C695.885 280.408 694.634 280.694 693.365 280.696C691.131 280.84 685.173 284.868 685.173 285.3C685.173 285.732 679.669 285.732 674.746 287.743C669.823 289.753 662.554 290.906 662.554 290.906C662.554 290.906 648.404 290.474 647.093 291.771C645.782 293.068 644.412 300.835 647.242 307.017C650.072 313.2 653.2 317.826 655.568 318.669C657.937 319.512 672.966 314.641 685.158 313.495C697.35 312.349 710.584 302.99 710.584 302.99C710.584 302.99 725.152 297.946 727.677 289.472C730.202 280.998 724.556 234.372 724.556 234.372C724.556 234.372 720.281 212.655 708.238 218.549Z" fill="black"/>
<path d="M709.586 219.413C709.586 219.413 695.607 245.166 697.246 254.943C698.884 264.721 703.487 275.803 701.26 278.39C700.498 279.373 699.509 280.172 698.373 280.722C697.237 281.272 695.984 281.559 694.713 281.56C692.479 281.705 686.521 285.732 686.521 286.158C686.521 286.583 681.025 286.59 676.094 288.607C671.164 290.625 663.902 291.771 663.902 291.771C663.902 291.771 649.752 291.338 648.433 292.635C647.115 293.932 645.76 301.7 648.582 307.882C651.405 314.064 654.541 318.69 656.909 319.533C659.277 320.376 674.307 315.505 686.499 314.352C698.69 313.2 711.925 303.854 711.925 303.854C711.925 303.854 726.5 298.81 729.055 290.329C731.609 281.849 725.971 235.237 725.971 235.237C725.971 235.237 721.622 213.548 709.586 219.413Z" fill="white"/>
<path opacity="0.1" d="M709.281 288.485C709.281 288.485 698.11 286.323 701.997 289.926C705.885 293.529 705.863 296.685 710.622 296.541C715.381 296.397 709.281 288.485 709.281 288.485Z" fill="black"/>
<path opacity="0.1" d="M728.161 366.001C728.161 366.001 723.111 369.309 732.771 376.932C742.431 384.555 728.161 366.001 728.161 366.001Z" fill="black"/>
<path opacity="0.1" d="M718.524 393.187C718.524 393.62 716.736 409.039 723.424 412.894C730.112 416.749 718.524 393.187 718.524 393.187Z" fill="black"/>
<path d="M612.334 272.337C606.942 272.518 595.294 274.11 601.334 285.012C606.674 294.66 615.649 288.211 620.698 283.319C619.466 278.757 616.473 274.827 612.334 272.337Z" fill="#FFB0B1"/>
<path d="M620.765 283.232L620.989 283.009L620.765 283.232Z" fill="#FFB0B1"/>
<path opacity="0.1" d="M707.799 205.622C702.079 209.405 697.283 212.597 696.344 213.26C693.782 215.097 688.897 225.884 685.746 231.389C683.237 235.82 675.081 236.959 672.005 237.24L672.4 233.947C679.394 230.921 684.748 221.28 684.748 221.28L698.571 197.833L703.33 202.019C703.33 202.019 705.118 203.461 707.799 205.622Z" fill="black"/>
<path d="M707.799 205.19C702.079 208.973 697.283 212.165 696.344 212.835C693.782 214.665 688.897 225.452 685.746 230.957C683.237 235.388 675.081 236.526 672.005 236.807L672.4 233.514C679.394 230.488 684.748 220.847 684.748 220.847L698.571 197.401L703.33 201.573C703.33 201.573 705.118 202.999 707.799 205.19Z" fill="#DCE7FF"/>
<path d="M696.791 186.83C696.794 191.156 695.439 195.38 692.904 198.943C689.91 203.155 685.454 206.19 680.345 207.496C675.237 208.802 669.813 208.293 665.059 206.062C660.305 203.83 656.535 200.024 654.434 195.333C652.332 190.643 652.038 185.378 653.605 180.496C655.172 175.614 658.497 171.437 662.975 168.723C667.453 166.009 672.788 164.938 678.012 165.704C683.237 166.47 688.004 169.023 691.45 172.899C694.895 176.775 696.79 181.718 696.791 186.83Z" fill="#FFB0B1"/>
<path opacity="0.1" d="M735.341 258.705C732.316 256.905 729.853 254.345 728.213 251.298C726.969 248.92 726.143 246.174 724.02 244.488C722.106 242.975 719.551 242.608 717.168 241.93C709.333 239.69 702.764 232.772 702.519 224.875C702.399 221.157 703.599 217.446 703.055 213.764C702.746 211.68 701.889 209.708 700.567 208.036C699.911 207.236 699.191 206.487 698.415 205.795C697.372 204.844 696.277 203.922 695.324 202.913C694.724 202.288 694.199 201.599 693.76 200.859C693.406 200.254 693.119 199.614 692.904 198.95C691.414 194.54 692.77 189.309 691.131 184.849L691.042 184.604C690.424 183.019 689.165 181.433 687.415 181.311C685.664 181.188 684.168 182.593 682.499 183.22C679.006 184.532 675.238 182.298 672.326 180.021C669.414 177.744 666.129 175.143 662.428 175.647C659.977 175.986 658.041 177.6 655.784 178.436C655.275 178.627 654.749 178.774 654.213 178.875C656.123 174.268 659.631 170.447 664.136 168.07C668.641 165.693 673.861 164.909 678.9 165.851C683.938 166.793 688.479 169.403 691.744 173.233C695.009 177.063 696.794 181.873 696.791 186.837C696.794 188.337 696.632 189.832 696.307 191.298C696.344 191.399 696.382 191.492 696.426 191.593C697.29 193.755 698.266 195.974 699.122 197.891L703.33 201.58C703.33 201.58 705.118 203.021 707.799 205.183C713.631 209.938 723.707 218.311 728.906 223.434C733.479 227.959 734.909 245.497 735.341 258.705Z" fill="black"/>
<path d="M655.524 165.272C656.589 163.175 657.117 160.826 658.391 158.837C660.26 155.955 663.523 154.11 666.874 152.993C675.625 150.075 694.118 145.838 699.644 152.993C700.731 154.435 701.632 156.034 703.137 157.029C704.284 157.785 705.669 158.109 706.928 158.679C710.45 160.278 712.7 163.766 713.899 167.325C715.098 170.885 715.455 174.704 716.334 178.371C717.459 183.076 719.432 187.536 721.399 191.968C723.715 197.199 726.173 202.625 730.641 206.321C736.741 211.365 738.089 218.506 743.749 224.039C750.452 230.611 750.236 241.455 746.78 250.065C746.326 251.197 745.812 252.378 745.991 253.582C746.17 254.785 747.093 255.88 747.964 256.839L751.629 260.838C742.96 262.862 733.151 258.481 729.114 250.793C727.871 248.415 727.044 245.677 724.914 243.984C723.007 242.471 720.445 242.111 718.069 241.433C710.234 239.185 703.666 232.261 703.42 224.364C703.301 220.653 704.5 216.942 703.956 213.267C703.654 211.169 702.794 209.183 701.461 207.503C699.413 204.916 696.322 203.18 694.654 200.297C691.831 195.477 693.976 189.215 691.943 184.042C691.317 182.457 690.066 180.871 688.316 180.749C686.566 180.626 685.069 182.031 683.393 182.658C679.907 183.97 676.139 181.743 673.227 179.459C670.315 177.175 667.03 174.581 663.321 175.093C660.871 175.424 658.942 177.038 656.685 177.881C655.017 178.501 651.636 179.056 650.176 177.694C647.093 174.949 654.235 167.837 655.524 165.272Z" fill="#591D4B"/>
<path opacity="0.1" d="M731.185 248.415C729.934 246.038 729.114 243.299 726.984 241.613C725.078 240.1 722.516 239.733 720.132 239.055C712.305 236.815 705.736 229.89 705.483 221.993C705.364 218.282 706.563 214.564 706.027 210.889C705.715 208.805 704.856 206.833 703.532 205.161C701.476 202.574 698.385 200.838 696.724 197.956C693.902 193.142 696.047 186.881 694.006 181.7C693.388 180.122 692.129 178.537 690.386 178.407C688.644 178.277 687.132 179.697 685.463 180.324C681.978 181.635 678.202 179.401 675.297 177.125C672.393 174.848 669.093 172.246 665.392 172.751C662.942 173.09 661.005 174.704 658.756 175.539C657.088 176.159 653.699 176.721 652.239 175.359C649.171 172.477 656.313 165.38 657.594 162.829C658.659 160.725 659.188 158.383 660.469 156.394C660.536 156.286 660.611 156.178 660.685 156.07C659.727 156.838 658.9 157.748 658.235 158.765C656.961 160.754 656.432 163.088 655.367 165.2C654.079 167.75 646.937 174.869 650.012 177.73C651.502 179.099 654.853 178.537 656.522 177.917C658.756 177.074 660.707 175.46 663.158 175.129C666.881 174.617 670.158 177.218 673.063 179.495C675.968 181.772 679.766 184.006 683.237 182.694C684.905 182.067 686.365 180.655 688.152 180.785C689.939 180.915 691.131 182.493 691.779 184.078C693.812 189.251 691.667 195.513 694.49 200.333C696.158 203.165 699.249 204.938 701.297 207.539C702.63 209.219 703.49 211.205 703.792 213.303C704.336 216.978 703.137 220.689 703.256 224.4C703.502 232.326 710.071 239.221 717.906 241.469C720.267 242.147 722.843 242.507 724.75 244.02C726.888 245.713 727.729 248.451 728.951 250.829C732.987 258.517 742.796 262.898 751.465 260.874L749.737 258.986C742.222 259.094 734.618 254.958 731.185 248.415Z" fill="black"/>
<path opacity="0.1" d="M679.84 215.53C678.865 216.971 676.072 224.349 673.741 230.791C671.559 229.969 669.578 224.731 669.578 224.731L681.211 208.72C682.402 210.306 681.62 212.936 679.84 215.53Z" fill="black"/>
<path d="M680.287 215.097C679.312 216.538 676.519 223.917 674.188 230.358C672.005 229.544 670.024 224.299 670.024 224.299L681.658 208.295C682.849 209.873 682.067 212.511 680.287 215.097Z" fill="#DCE7FF"/>
<path d="M612.647 288.708L606.198 269.03C606.121 268.8 606.093 268.557 606.114 268.316C606.134 268.075 606.204 267.84 606.319 267.625C606.434 267.41 606.592 267.22 606.783 267.064C606.974 266.908 607.195 266.79 607.434 266.717C607.914 266.572 608.434 266.617 608.88 266.841C609.326 267.065 609.663 267.45 609.817 267.913L616.267 287.57L615.626 291.684L612.647 288.708Z" fill="#BE8B87"/>
<path opacity="0.1" d="M606.808 267.301C607.289 267.154 607.811 267.197 608.259 267.421C608.707 267.645 609.045 268.032 609.199 268.497L615.649 288.153L615.165 291.237L615.634 291.713L616.274 287.599L609.787 267.942C609.633 267.479 609.297 267.093 608.85 266.869C608.404 266.645 607.884 266.601 607.404 266.746C607 266.873 606.652 267.126 606.414 267.467C606.54 267.401 606.672 267.345 606.808 267.301Z" fill="white"/>
<path d="M612.647 288.708L616.267 287.599L615.738 290.971L615.626 291.713L614.569 290.647L612.647 288.708Z" fill="#EFC8C4"/>
<path d="M614.569 290.647C614.632 290.57 614.71 290.506 614.8 290.459C614.852 290.427 614.913 290.41 614.975 290.41C615.037 290.41 615.097 290.427 615.15 290.459C615.2 290.519 615.243 290.584 615.276 290.654C615.326 290.733 615.393 290.801 615.473 290.852C615.552 290.903 615.643 290.937 615.738 290.949L615.626 291.67L614.569 290.647Z" fill="#727A9C"/>
<path d="M606.16 276.019C606.16 276.019 619.097 275.947 616.051 281.272C613.005 286.597 608.246 287.238 608.246 287.238L606.16 276.019Z" fill="#FFB0B1"/>
<path d="M525.703 37.0505H525.144C502.92 37.0505 483.266 48.4279 471.96 65.2166C460.655 48.4279 441 37.0505 418.776 37.0505H418.218C401.539 37.2042 385.598 43.7199 373.857 55.1814C362.116 66.6429 355.525 82.1241 355.516 98.2608C355.516 118.299 364.587 146.732 382.275 170.128C415.976 214.708 471.96 253.711 471.96 253.711C471.96 253.711 527.945 214.715 561.638 170.128C579.334 146.732 588.398 118.299 588.398 98.2608C588.389 82.1254 581.798 66.6452 570.059 55.1839C558.32 43.7226 542.38 37.2061 525.703 37.0505ZM517.712 173.558C515.181 173.549 512.712 172.799 510.629 171.408C508.546 170.016 506.947 168.048 506.041 165.762H492.754C491.879 165.756 491.028 165.487 490.319 164.991C489.61 164.495 489.079 163.797 488.8 162.995L484.718 151.098L471.804 194.756C471.552 195.597 471.026 196.336 470.303 196.862C469.581 197.388 468.701 197.673 467.797 197.675H467.536C466.593 197.63 465.693 197.274 464.989 196.666C464.284 196.057 463.816 195.233 463.664 194.331L450.355 116.887L440.628 162.714C440.405 163.584 439.887 164.357 439.157 164.91C438.426 165.462 437.526 165.762 436.599 165.762H417.883C417.322 165.785 416.762 165.697 416.236 165.506C415.711 165.314 415.231 165.021 414.826 164.645C414.42 164.269 414.098 163.818 413.877 163.318C413.657 162.818 413.543 162.281 413.543 161.737C413.543 161.194 413.657 160.656 413.877 160.157C414.098 159.657 414.42 159.206 414.826 158.83C415.231 158.454 415.711 158.161 416.236 157.969C416.762 157.777 417.322 157.69 417.883 157.713H433.322L447.1 96.0992C447.326 95.1883 447.872 94.3816 448.645 93.8172C449.418 93.2527 450.37 92.9655 451.337 93.0046C452.305 93.0438 453.228 93.4068 453.949 94.0318C454.671 94.6567 455.146 95.5046 455.292 96.4307L468.884 175.431L480.458 136.371C480.699 135.548 481.209 134.823 481.911 134.303C482.613 133.784 483.47 133.498 484.353 133.488H484.435C485.311 133.489 486.163 133.756 486.872 134.253C487.581 134.75 488.11 135.451 488.383 136.255L495.763 157.735H505.877C506.596 155.621 507.905 153.741 509.659 152.301C511.413 150.862 513.544 149.919 515.816 149.577C518.089 149.236 520.415 149.508 522.538 150.364C524.661 151.221 526.498 152.628 527.846 154.431C529.194 156.233 530.002 158.361 530.179 160.58C530.356 162.799 529.896 165.021 528.85 167.003C527.804 168.985 526.212 170.648 524.251 171.81C522.289 172.972 520.034 173.587 517.734 173.587L517.712 173.558Z" fill="#174624"/>
<path d="M562.099 272.428C555.596 261.957 540.426 259.494 529.159 264.489C517.891 269.483 510.102 280.133 504.808 291.263C499.513 302.393 496.183 314.384 490.741 325.443C474.729 357.981 442.305 379.233 421.908 409.218C406.583 431.747 398.468 459.102 399.027 486.344C399.241 496.778 400.929 507.756 407.441 515.912C417.106 528.018 434.218 530.501 449.627 532.095C458.578 533.021 469.564 532.995 474.173 525.267C475.996 522.21 456.402 511.546 456.717 508C458.413 488.867 480.061 476.717 481.757 457.585C484.417 470.916 481.008 484.679 481.546 498.262C482.084 511.846 488.779 527.21 502.08 530.019C506.185 530.885 510.819 530.286 513.93 527.472C517.04 524.657 517.949 519.341 515.178 516.192C518.015 519.09 522.804 519.843 526.395 517.956C529.985 516.069 532.08 511.697 531.302 507.716C530.73 504.789 528.84 502.327 527.204 499.833C518.343 486.323 516.034 468.718 521.113 453.379C530.091 426.266 559.573 408.568 564.567 380.446C568.276 359.562 557.694 335.898 568.923 317.903C573.983 309.793 582.576 304.681 589.429 298.018C596.282 291.354 601.641 281.159 597.719 272.442L562.69 272.403" fill="#3F3D56"/>
<path d="M415.924 506.789C408.578 505.889 402.373 512.499 395.041 513.513C386.564 514.685 378.768 507.977 374.996 500.295C371.224 492.613 370.256 483.893 367.661 475.737C365.066 467.582 360.06 459.322 351.904 456.73C348.482 455.643 344.61 455.702 341.431 457.371C338.252 459.04 335.922 462.448 336.002 466.038C336.1 470.455 339.487 473.99 341.539 477.903C344.804 484.129 344.703 491.502 346.145 498.382C349.613 514.925 363.069 528.953 379.453 533.106C387.926 535.253 397.411 534.762 404.75 530.015C412.09 525.268 416.563 515.708 413.846 507.401" fill="#3F3D56"/>
</g>
<defs>
<linearGradient id="paint0_linear_11_27" x1="265.384" y1="558.329" x2="265.384" y2="114.949" gradientUnits="userSpaceOnUse">
<stop stop-color="#808080" stop-opacity="0.25"/>
<stop offset="0.54" stop-color="#808080" stop-opacity="0.12"/>
<stop offset="1" stop-color="#808080" stop-opacity="0.1"/>
</linearGradient>
<linearGradient id="paint1_linear_11_27" x1="665.399" y1="552.723" x2="665.399" y2="147.777" gradientUnits="userSpaceOnUse">
<stop stop-color="#808080" stop-opacity="0.25"/>
<stop offset="0.54" stop-color="#808080" stop-opacity="0.12"/>
<stop offset="1" stop-color="#808080" stop-opacity="0.1"/>
</linearGradient>
<clipPath id="clip0_11_27">
<rect width="823" height="564" fill="white"/>
</clipPath>
</defs>
</svg>
